<?xml version="1.0" encoding="UTF-8" standalone="no"?>
<!-- Created with Inkscape (http://www.inkscape.org/) -->
<svg
   xmlns:svg="http://www.w3.org/2000/svg"
   xmlns="http://www.w3.org/2000/svg"
   xmlns:xlink="http://www.w3.org/1999/xlink"
   xmlns:inkscape="http://www.inkscape.org/namespaces/inkscape"
   version="1.0"
   width="300.51901"
   height="300.51999"
   viewBox="0 0 300.519 300.52"
   id="Layer_8"
   xml:space="preserve"><defs
   id="defs119"><linearGradient
   id="linearGradient7378"><stop
     id="stop7380"
     style="stop-color:#ff4a00;stop-opacity:1"
     offset="0" /><stop
     id="stop7388"
     style="stop-color:#ff4a00;stop-opacity:0.74901962"
     offset="0.5" /><stop
     id="stop7386"
     style="stop-color:#ff4a00;stop-opacity:0.49803922"
     offset="0.5" /><stop
     id="stop7382"
     style="stop-color:#ff4a00;stop-opacity:0"
     offset="1" /></linearGradient><linearGradient
   id="linearGradient5567"><stop
     id="stop5569"
     style="stop-color:#ff2500;stop-opacity:1"
     offset="0" /><stop
     id="stop5575"
     style="stop-color:#ff3702;stop-opacity:0.49803922"
     offset="0.5956676" /><stop
     id="stop5571"
     style="stop-color:#ff4a00;stop-opacity:0"
     offset="1" /></linearGradient>
<filter
   id="Gaussian_Blur2">
<feGaussianBlur
   in="SourceGraphic"
   stdDeviation="1"
   id="feGaussianBlur2636" />
</filter>
<filter
   id="Gaussian_Blur">
<feGaussianBlur
   in="SourceGraphic"
   stdDeviation="3"
   id="feGaussianBlur2633" />
</filter>
<linearGradient
   x1="149.00929"
   y1="294.19339"
   x2="149.00929"
   y2="3.8267"
   id="linearGradient2740"
   xlink:href="#SVGID_1_"
   gradientUnits="userSpaceOnUse" /><linearGradient
   x1="149.00929"
   y1="294.19339"
   x2="149.00929"
   y2="3.8267"
   id="linearGradient2777"
   xlink:href="#SVGID_1_"
   gradientUnits="userSpaceOnUse" />
	
	
	

		
	<radialGradient
   cx="142.9639"
   cy="147.6965"
   r="14.644906"
   fx="142.9639"
   fy="147.6965"
   id="radialGradient3903"
   xlink:href="#SVGID_5_"
   gradientUnits="userSpaceOnUse" /><radialGradient
   cx="142.9639"
   cy="147.6965"
   r="14.394987"
   fx="142.9639"
   fy="147.6965"
   id="radialGradient5355"
   xlink:href="#SVGID_5_"
   gradientUnits="userSpaceOnUse" /><filter
   id="filter5357"><feBlend
     id="feBlend5359"
     in2="BackgroundImage"
     mode="multiply"
     inkscape:collect="always" /></filter><linearGradient
   x1="149.00929"
   y1="294.19339"
   x2="149.00929"
   y2="3.8267"
   id="linearGradient2729"
   xlink:href="#SVGID_1_"
   gradientUnits="userSpaceOnUse" /><linearGradient
   x1="58.75"
   y1="98.399361"
   x2="183.01855"
   y2="98.399361"
   id="linearGradient5573"
   xlink:href="#linearGradient5567"
   gradientUnits="userSpaceOnUse" /><linearGradient
   x1="58.75"
   y1="98.399361"
   x2="183.01855"
   y2="98.399361"
   id="linearGradient5573-997"
   xlink:href="#linearGradient5567-452"
   gradientUnits="userSpaceOnUse" /><linearGradient
   id="linearGradient5567-452"><stop
     id="stop6297"
     style="stop-color:#e62100;stop-opacity:1"
     offset="0" /><stop
     id="stop6299"
     style="stop-color:#e63202;stop-opacity:0.49803922"
     offset="0.5956676" /><stop
     id="stop6301"
     style="stop-color:#e64300;stop-opacity:0"
     offset="1" /></linearGradient><linearGradient
   x1="58.75"
   y1="98.399361"
   x2="183.01855"
   y2="98.399361"
   id="linearGradient5573-921"
   xlink:href="#linearGradient5567-319"
   gradientUnits="userSpaceOnUse" /><linearGradient
   id="linearGradient5567-319"><stop
     id="stop6305"
     style="stop-color:#e62100;stop-opacity:1"
     offset="0" /><stop
     id="stop6307"
     style="stop-color:#e63202;stop-opacity:0.49803922"
     offset="0.5956676" /><stop
     id="stop6309"
     style="stop-color:#e64300;stop-opacity:0"
     offset="1" /></linearGradient><linearGradient
   x1="58.75"
   y1="98.399361"
   x2="183.01855"
   y2="98.399361"
   id="linearGradient5573-32"
   xlink:href="#linearGradient5567-479"
   gradientUnits="userSpaceOnUse" /><linearGradient
   id="linearGradient5567-479"><stop
     id="stop6313"
     style="stop-color:#e62100;stop-opacity:1"
     offset="0" /><stop
     id="stop6315"
     style="stop-color:#e63202;stop-opacity:0.49803922"
     offset="0.5956676" /><stop
     id="stop6317"
     style="stop-color:#e64300;stop-opacity:0"
     offset="1" /></linearGradient><linearGradient
   x1="58.75"
   y1="98.399361"
   x2="183.01855"
   y2="98.399361"
   id="linearGradient5573-475"
   xlink:href="#linearGradient5567-465"
   gradientUnits="userSpaceOnUse" /><linearGradient
   id="linearGradient5567-465"><stop
     id="stop6321"
     style="stop-color:#e62100;stop-opacity:1"
     offset="0" /><stop
     id="stop6323"
     style="stop-color:#e63202;stop-opacity:0.49803922"
     offset="0.5956676" /><stop
     id="stop6325"
     style="stop-color:#e64300;stop-opacity:0"
     offset="1" /></linearGradient><filter
   id="filter6525"><feGaussianBlur
     id="feGaussianBlur6527"
     stdDeviation="0.044268407"
     inkscape:collect="always" /></filter><linearGradient
   x1="58.75"
   y1="98.399361"
   x2="183.01855"
   y2="98.399361"
   id="linearGradient5573-997-679"
   xlink:href="#linearGradient5567-452-342"
   gradientUnits="userSpaceOnUse" /><linearGradient
   id="linearGradient5567-452-342"><stop
     id="stop6575"
     style="stop-color:#cf1e00;stop-opacity:1"
     offset="0" /><stop
     id="stop6577"
     style="stop-color:#cf2d02;stop-opacity:0.49803922"
     offset="0.5956676" /><stop
     id="stop6579"
     style="stop-color:#cf3c00;stop-opacity:0"
     offset="1" /></linearGradient><linearGradient
   x1="58.75"
   y1="98.399361"
   x2="183.01855"
   y2="98.399361"
   id="linearGradient5573-921-530"
   xlink:href="#linearGradient5567-319-456"
   gradientUnits="userSpaceOnUse" /><linearGradient
   id="linearGradient5567-319-456"><stop
     id="stop6583"
     style="stop-color:#cf1e00;stop-opacity:1"
     offset="0" /><stop
     id="stop6585"
     style="stop-color:#cf2d02;stop-opacity:0.49803922"
     offset="0.5956676" /><stop
     id="stop6587"
     style="stop-color:#cf3c00;stop-opacity:0"
     offset="1" /></linearGradient><linearGradient
   x1="58.75"
   y1="98.399361"
   x2="183.01855"
   y2="98.399361"
   id="linearGradient5573-32-545"
   xlink:href="#linearGradient5567-479-104"
   gradientUnits="userSpaceOnUse" /><linearGradient
   id="linearGradient5567-479-104"><stop
     id="stop6591"
     style="stop-color:#cf1e00;stop-opacity:1"
     offset="0" /><stop
     id="stop6593"
     style="stop-color:#cf2d02;stop-opacity:0.49803922"
     offset="0.5956676" /><stop
     id="stop6595"
     style="stop-color:#cf3c00;stop-opacity:0"
     offset="1" /></linearGradient><linearGradient
   x1="58.75"
   y1="98.399361"
   x2="183.01855"
   y2="98.399361"
   id="linearGradient5573-475-740"
   xlink:href="#linearGradient5567-465-523"
   gradientUnits="userSpaceOnUse" /><linearGradient
   id="linearGradient5567-465-523"><stop
     id="stop6599"
     style="stop-color:#cf1e00;stop-opacity:1"
     offset="0" /><stop
     id="stop6601"
     style="stop-color:#cf2d02;stop-opacity:0.49803922"
     offset="0.5956676" /><stop
     id="stop6603"
     style="stop-color:#cf3c00;stop-opacity:0"
     offset="1" /></linearGradient><linearGradient
   x1="58.75"
   y1="98.399361"
   x2="183.01855"
   y2="98.399361"
   id="linearGradient6808"
   xlink:href="#linearGradient5567-452-342"
   gradientUnits="userSpaceOnUse" /><linearGradient
   x1="58.75"
   y1="98.399361"
   x2="183.01855"
   y2="98.399361"
   id="linearGradient6812"
   xlink:href="#linearGradient5567-452-342"
   gradientUnits="userSpaceOnUse" /><linearGradient
   x1="58.75"
   y1="98.399361"
   x2="183.01855"
   y2="98.399361"
   id="linearGradient6823"
   xlink:href="#linearGradient5567-452-342"
   gradientUnits="userSpaceOnUse" /><linearGradient
   x1="58.75"
   y1="98.399361"
   x2="183.01855"
   y2="98.399361"
   id="linearGradient6827"
   xlink:href="#linearGradient5567-452-342"
   gradientUnits="userSpaceOnUse" /><linearGradient
   x1="58.75"
   y1="98.399361"
   x2="183.01855"
   y2="98.399361"
   id="linearGradient6838"
   xlink:href="#linearGradient5567-452-342"
   gradientUnits="userSpaceOnUse" /><linearGradient
   x1="58.75"
   y1="98.399361"
   x2="183.01855"
   y2="98.399361"
   id="linearGradient6842"
   xlink:href="#linearGradient5567-452-342"
   gradientUnits="userSpaceOnUse" /><linearGradient
   x1="58.75"
   y1="98.399361"
   x2="183.01855"
   y2="98.399361"
   id="linearGradient6853"
   xlink:href="#linearGradient5567-452-342"
   gradientUnits="userSpaceOnUse" /><linearGradient
   x1="58.75"
   y1="98.399361"
   x2="183.01855"
   y2="98.399361"
   id="linearGradient6857"
   xlink:href="#linearGradient5567-452-342"
   gradientUnits="userSpaceOnUse" /><linearGradient
   x1="58.75"
   y1="98.399361"
   x2="183.01855"
   y2="98.399361"
   id="linearGradient6868"
   xlink:href="#linearGradient5567-452-342"
   gradientUnits="userSpaceOnUse" /><linearGradient
   x1="58.75"
   y1="98.399361"
   x2="183.01855"
   y2="98.399361"
   id="linearGradient6872"
   xlink:href="#linearGradient5567-452-342"
   gradientUnits="userSpaceOnUse" /><linearGradient
   x1="58.75"
   y1="98.399361"
   x2="183.01855"
   y2="98.399361"
   id="linearGradient6883"
   xlink:href="#linearGradient5567-452-342"
   gradientUnits="userSpaceOnUse" /><linearGradient
   x1="58.75"
   y1="98.399361"
   x2="183.01855"
   y2="98.399361"
   id="linearGradient6887"
   xlink:href="#linearGradient5567-452-342"
   gradientUnits="userSpaceOnUse" /><linearGradient
   x1="58.75"
   y1="98.399361"
   x2="183.01855"
   y2="98.399361"
   id="linearGradient6898"
   xlink:href="#linearGradient5567-452-342"
   gradientUnits="userSpaceOnUse" /><linearGradient
   x1="58.75"
   y1="98.399361"
   x2="183.01855"
   y2="98.399361"
   id="linearGradient6902"
   xlink:href="#linearGradient5567-452-342"
   gradientUnits="userSpaceOnUse" /><linearGradient
   x1="58.75"
   y1="98.399361"
   x2="183.01855"
   y2="98.399361"
   id="linearGradient6913"
   xlink:href="#linearGradient5567-452-342"
   gradientUnits="userSpaceOnUse" /><linearGradient
   x1="58.75"
   y1="98.399361"
   x2="183.01855"
   y2="98.399361"
   id="linearGradient6917"
   xlink:href="#linearGradient5567-452-342"
   gradientUnits="userSpaceOnUse" /><linearGradient
   x1="58.75"
   y1="98.399361"
   x2="183.01855"
   y2="98.399361"
   id="linearGradient6928"
   xlink:href="#linearGradient5567-452-342"
   gradientUnits="userSpaceOnUse" /><linearGradient
   x1="58.75"
   y1="98.399361"
   x2="183.01855"
   y2="98.399361"
   id="linearGradient6932"
   xlink:href="#linearGradient5567-452-342"
   gradientUnits="userSpaceOnUse" /><linearGradient
   x1="58.75"
   y1="98.399361"
   x2="183.01855"
   y2="98.399361"
   id="linearGradient6943"
   xlink:href="#linearGradient5567-452-342"
   gradientUnits="userSpaceOnUse" /><linearGradient
   x1="58.75"
   y1="98.399361"
   x2="183.01855"
   y2="98.399361"
   id="linearGradient6947"
   xlink:href="#linearGradient5567-452-342"
   gradientUnits="userSpaceOnUse" /><linearGradient
   x1="58.75"
   y1="98.399361"
   x2="183.01855"
   y2="98.399361"
   id="linearGradient6958"
   xlink:href="#linearGradient5567-452-342"
   gradientUnits="userSpaceOnUse" /><linearGradient
   x1="58.75"
   y1="98.399361"
   x2="183.01855"
   y2="98.399361"
   id="linearGradient6962"
   xlink:href="#linearGradient5567-452-342"
   gradientUnits="userSpaceOnUse" /><filter
   id="filter7374"><feGaussianBlur
     id="feGaussianBlur7376"
     stdDeviation="1.9868904"
     inkscape:collect="always" /></filter><linearGradient
   x1="38.705658"
   y1="144.19051"
   x2="255.92384"
   y2="144.19051"
   id="linearGradient7384"
   xlink:href="#linearGradient7378"
   gradientUnits="userSpaceOnUse" /><linearGradient
   x1="38.705658"
   y1="144.19051"
   x2="255.92384"
   y2="144.19051"
   id="linearGradient7438"
   xlink:href="#linearGradient7378"
   gradientUnits="userSpaceOnUse" /><linearGradient
   x1="38.705658"
   y1="144.19051"
   x2="255.92384"
   y2="144.19051"
   id="linearGradient7440"
   xlink:href="#linearGradient7378"
   gradientUnits="userSpaceOnUse" /><linearGradient
   x1="38.705658"
   y1="144.19051"
   x2="255.92384"
   y2="144.19051"
   id="linearGradient7442"
   xlink:href="#linearGradient7378"
   gradientUnits="userSpaceOnUse" /><linearGradient
   x1="38.705658"
   y1="144.19051"
   x2="255.92384"
   y2="144.19051"
   id="linearGradient7444"
   xlink:href="#linearGradient7378"
   gradientUnits="userSpaceOnUse" /><linearGradient
   x1="38.705658"
   y1="144.19051"
   x2="255.92384"
   y2="144.19051"
   id="linearGradient7446"
   xlink:href="#linearGradient7378"
   gradientUnits="userSpaceOnUse" /><linearGradient
   x1="38.705658"
   y1="144.19051"
   x2="255.92384"
   y2="144.19051"
   id="linearGradient7448"
   xlink:href="#linearGradient7378"
   gradientUnits="userSpaceOnUse" /><linearGradient
   x1="38.705658"
   y1="144.19051"
   x2="255.92384"
   y2="144.19051"
   id="linearGradient7450"
   xlink:href="#linearGradient7378"
   gradientUnits="userSpaceOnUse" /><linearGradient
   x1="38.705658"
   y1="144.19051"
   x2="255.92384"
   y2="144.19051"
   id="linearGradient7452"
   xlink:href="#linearGradient7378"
   gradientUnits="userSpaceOnUse" /><linearGradient
   x1="38.705658"
   y1="144.19051"
   x2="255.92384"
   y2="144.19051"
   id="linearGradient7454"
   xlink:href="#linearGradient7378"
   gradientUnits="userSpaceOnUse" /><linearGradient
   x1="38.705658"
   y1="144.19051"
   x2="255.92384"
   y2="144.19051"
   id="linearGradient7456"
   xlink:href="#linearGradient7378"
   gradientUnits="userSpaceOnUse" /><linearGradient
   x1="38.705658"
   y1="144.19051"
   x2="255.92384"
   y2="144.19051"
   id="linearGradient7458"
   xlink:href="#linearGradient7378"
   gradientUnits="userSpaceOnUse" /><linearGradient
   x1="58.75"
   y1="98.399361"
   x2="183.01855"
   y2="98.399361"
   id="linearGradient7460"
   xlink:href="#linearGradient5567-465-523"
   gradientUnits="userSpaceOnUse" /><linearGradient
   x1="58.75"
   y1="98.399361"
   x2="183.01855"
   y2="98.399361"
   id="linearGradient7462"
   xlink:href="#linearGradient5567-452-342"
   gradientUnits="userSpaceOnUse" /><linearGradient
   x1="58.75"
   y1="98.399361"
   x2="183.01855"
   y2="98.399361"
   id="linearGradient7462-651"
   xlink:href="#linearGradient5567-452-342-536"
   gradientUnits="userSpaceOnUse" /><linearGradient
   id="linearGradient5567-452-342-536"><stop
     id="stop7573"
     style="stop-color:#ba1b00;stop-opacity:1"
     offset="0" /><stop
     id="stop7575"
     style="stop-color:#ba2902;stop-opacity:0.49803922"
     offset="0.5956676" /><stop
     id="stop7577"
     style="stop-color:#ba3600;stop-opacity:0"
     offset="1" /></linearGradient><linearGradient
   id="linearGradient5567-319-456-984"><stop
     id="stop7581"
     style="stop-color:#ba1b00;stop-opacity:1"
     offset="0" /><stop
     id="stop7583"
     style="stop-color:#ba2902;stop-opacity:0.49803922"
     offset="0.5956676" /><stop
     id="stop7585"
     style="stop-color:#ba3600;stop-opacity:0"
     offset="1" /></linearGradient><linearGradient
   id="linearGradient5567-479-104-583"><stop
     id="stop7589"
     style="stop-color:#ba1b00;stop-opacity:1"
     offset="0" /><stop
     id="stop7591"
     style="stop-color:#ba2902;stop-opacity:0.49803922"
     offset="0.5956676" /><stop
     id="stop7593"
     style="stop-color:#ba3600;stop-opacity:0"
     offset="1" /></linearGradient><linearGradient
   x1="58.75"
   y1="98.399361"
   x2="183.01855"
   y2="98.399361"
   id="linearGradient7460-928"
   xlink:href="#linearGradient5567-465-523-345"
   gradientUnits="userSpaceOnUse" /><linearGradient
   id="linearGradient5567-465-523-345"><stop
     id="stop7597"
     style="stop-color:#ba1b00;stop-opacity:1"
     offset="0" /><stop
     id="stop7599"
     style="stop-color:#ba2902;stop-opacity:0.49803922"
     offset="0.5956676" /><stop
     id="stop7601"
     style="stop-color:#ba3600;stop-opacity:0"
     offset="1" /></linearGradient>
	

	<linearGradient
   x1="149.00929"
   y1="294.19339"
   x2="149.00929"
   y2="3.8267"
   id="SVGID_1_"
   gradientUnits="userSpaceOnUse">
		<stop
   id="stop18"
   style="stop-color:#a0a0a0;stop-opacity:1"
   offset="0" />
		<stop
   id="stop20"
   style="stop-color:#b3b3b3;stop-opacity:1"
   offset="0.0494" />
		<stop
   id="stop22"
   style="stop-color:#c2c2c2;stop-opacity:1"
   offset="0.1073" />
		<stop
   id="stop24"
   style="stop-color:#cbcbcb;stop-opacity:1"
   offset="0.1709" />
		<stop
   id="stop26"
   style="stop-color:#cfcfcf;stop-opacity:1"
   offset="0.25" />
		<stop
   id="stop28"
   style="stop-color:#c7c7c7;stop-opacity:1"
   offset="0.30880001" />
		<stop
   id="stop30"
   style="stop-color:#b0b0b0;stop-opacity:1"
   offset="0.40439999" />
		<stop
   id="stop32"
   style="stop-color:#959595;stop-opacity:1"
   offset="0.5" />
		<stop
   id="stop34"
   style="stop-color:#b0b0b0;stop-opacity:1"
   offset="0.59560001" />
		<stop
   id="stop36"
   style="stop-color:#c7c7c7;stop-opacity:1"
   offset="0.69120002" />
		<stop
   id="stop38"
   style="stop-color:#cfcfcf;stop-opacity:1"
   offset="0.75" />
		<stop
   id="stop40"
   style="stop-color:#cbcbcb;stop-opacity:1"
   offset="0.82910001" />
		<stop
   id="stop42"
   style="stop-color:#c2c2c2;stop-opacity:1"
   offset="0.89270002" />
		<stop
   id="stop44"
   style="stop-color:#b3b3b3;stop-opacity:1"
   offset="0.95060003" />
		<stop
   id="stop46"
   style="stop-color:#a0a0a0;stop-opacity:1"
   offset="1" />
	</linearGradient>
	
</defs>

<circle
   cx="149.009"
   cy="149.009"
   r="145.183"
   transform="translate(0.3752486,0.3754986)"
   id="circle48"
   style="fill:url(#linearGradient2729)" />


<g
   transform="translate(3.6392513,36.353001)"
   id="Reflect">
	<defs
   id="defs81">
		<filter
   height="225.063"
   width="290.48999"
   y="0.5"
   x="0.5"
   filterUnits="userSpaceOnUse"
   id="Adobe_OpacityMaskFilter_1_">
			<feColorMatrix
   id="feColorMatrix84"
   values="1 0 0 0 0  0 1 0 0 0  0 0 1 0 0  0 0 0 1 0"
   type="matrix" />
		</filter>
	</defs>
	<mask
   id="SVGID_4_">
		<g
   id="g87"
   style="filter:url(#Adobe_OpacityMaskFilter_1_)">
			<linearGradient
   x1="0.5"
   y1="113.0313"
   x2="290.9902"
   y2="113.0313"
   id="SVGID_5_"
   gradientUnits="userSpaceOnUse">
				<stop
   id="stop90"
   style="stop-color:#e6e6e6;stop-opacity:0.13"
   offset="0" />
				<stop
   id="stop92"
   style="stop-color:#000000;stop-opacity:1"
   offset="1" />
			</linearGradient>
			<path
   d="M 216.417,94.948 C 242.834,94.948 268.018,98.651 290.99,105.345 C 272.343,44.636 215.833,0.5 149.009,0.5 C 66.989,0.5 0.5,66.99 0.5,149.009 C 0.5,177.015 8.256,203.206 21.731,225.563 C 26.499,152.862 111.835,94.948 216.417,94.948 z"
   id="path94"
   style="fill:url(#SVGID_5_)" />
		<linearGradient
   x1="0.5"
   y1="113.0313"
   x2="290.9902"
   y2="113.0313"
   id="SVGID_5_-737"
   gradientUnits="userSpaceOnUse">
				<stop
   id="stop2635"
   style="stop-color:#cfcfcf;stop-opacity:0.13"
   offset="0" />
				<stop
   id="stop2637"
   style="stop-color:#000000;stop-opacity:1"
   offset="1" />
			</linearGradient>
			</g>
	</mask>
	<path
   d="M 216.417,94.948 C 242.834,94.948 268.018,98.651 290.99,105.345 C 272.343,44.636 215.833,0.5 149.009,0.5 C 66.989,0.5 0.5,66.99 0.5,149.009 C 0.5,177.015 8.256,203.206 21.731,225.563 C 26.499,152.862 111.835,94.948 216.417,94.948 z"
   mask="url(#SVGID_4_)"
   id="path96"
   style="opacity:0.6;fill:#ffffff" />
</g>
<g
   transform="translate(-1.2487487,44.170001)"
   id="Reflect_Line">
	<defs
   id="defs99">
		<filter
   height="166.85699"
   width="249.868"
   y="21.787001"
   x="25.698999"
   filterUnits="userSpaceOnUse"
   id="Adobe_OpacityMaskFilter_2_">
			<feColorMatrix
   id="feColorMatrix102"
   values="1 0 0 0 0  0 1 0 0 0  0 0 1 0 0  0 0 0 1 0"
   type="matrix" />
		</filter>
	</defs>
	<mask
   id="SVGID_6_">
		<g
   id="g105"
   style="filter:url(#Adobe_OpacityMaskFilter_2_)">
			<linearGradient
   x1="192.4541"
   y1="29.7139"
   x2="144.75301"
   y2="160.77161"
   id="SVGID_7_"
   gradientUnits="userSpaceOnUse">
				<stop
   id="stop108"
   style="stop-color:#e6e6e6;stop-opacity:1"
   offset="0" />
				<stop
   id="stop110"
   style="stop-color:#989898;stop-opacity:1"
   offset="0.3312" />
				<stop
   id="stop112"
   style="stop-color:#000000;stop-opacity:1"
   offset="1" />
			</linearGradient>
			<path
   d="M 147.231,26.23 C 217.419,26.23 274.317,84 274.317,155.262 C 274.317,166.807 272.814,177.993 270.013,188.643 C 273.619,176.68 275.567,163.98 275.567,150.819 C 275.567,79.556 218.669,21.786 148.481,21.786 C 89.665,21.786 40.188,62.358 25.699,117.439 C 41.622,64.634 90.007,26.23 147.231,26.23 z"
   id="path114"
   style="fill:url(#SVGID_7_)" />
		</g>
	</mask>
	<path
   d="M 147.231,26.23 C 217.419,26.23 274.317,84 274.317,155.262 C 274.317,166.807 272.814,177.993 270.013,188.643 C 273.619,176.68 275.567,163.98 275.567,150.819 C 275.567,79.556 218.669,21.786 148.481,21.786 C 89.665,21.786 40.188,62.358 25.699,117.439 C 41.622,64.634 90.007,26.23 147.231,26.23 z"
   mask="url(#SVGID_6_)"
   id="path116"
   style="opacity:0.56000001;fill:#ffffff" />
</g>
<path
   d="M 149.38425,106.24822 C 125.56089,106.24822 106.24665,125.55982 106.24665,149.38582 C 106.24665,173.20918 125.55825,192.52078 149.38425,192.52078 C 173.21025,192.52078 192.52185,173.20654 192.52185,149.38318 C 192.52185,125.55982 173.20761,106.24822 149.38425,106.24822 z M 149.38425,163.41742 C 141.50121,163.41742 135.10977,157.02598 135.10977,149.14558 C 135.10977,141.26254 141.50121,134.87374 149.38425,134.87374 C 157.26465,134.87374 163.65873,141.26254 163.65873,149.14558 C 163.65609,157.02862 157.26465,163.41742 149.38425,163.41742 z"
   id="path2689"
   style="opacity:0.22000002;fill:#595959;stroke:#000000;stroke-width:0.66000003" /><circle
   cx="61.5"
   cy="62.880001"
   r="10.693"
   transform="matrix(2.64,0,0,2.64,-12.975749,-16.618701)"
   id="circle2691"
   style="opacity:0.5;fill:none;stroke:#484848;stroke-width:0.25" /><ellipse
   cx="61.5"
   cy="62.880001"
   rx="6.7880001"
   ry="6.6669998"
   transform="matrix(2.64,0,0,2.64,-12.975749,-16.618701)"
   id="ellipse2693"
   style="opacity:0.3;fill:none;stroke:#484848;stroke-width:0.25" /><g
   id="layer1"
   style="filter:url(#filter5357)"><path
     d="M 157.35888,147.6965 A 14.394987,14.394987 0 1 1 128.56891,147.6965 A 14.394987,14.394987 0 1 1 157.35888,147.6965 z"
     transform="matrix(1.10592,0,0,1.10592,-8.8045213,-14.488946)"
     id="path2833"
     style="opacity:1;fill:#fefefe;fill-opacity:1;fill-rule:evenodd;stroke:#b3b3b3;stroke-width:1.31383824;stroke-linecap:butt;stroke-linejoin:miter;marker:none;marker-start:none;marker-mid:none;marker-end:none;stroke-miterlimit:4;stroke-dasharray:none;stroke-dashoffset:0;stroke-opacity:1;visibility:visible;display:inline;overflow:visible;enable-background:accumulate" /></g><g
   id="layer2"><flowRoot
     transform="translate(0,-4.0000002)"
     id="flowRoot3520"
     xml:space="preserve"
     style="font-size:40px;font-style:normal;font-weight:normal;fill:#000000;fill-opacity:1;stroke:none;font-family:Bitstream Vera Sans"><flowRegion
       id="flowRegion3522"><rect
         width="216.91077"
         height="201.13544"
         x="43.776524"
         y="46.931602"
         id="rect3524" /></flowRegion><flowPara
       id="flowPara3526" /></flowRoot><path
     d="M 168.4375,69.28125 C 158.86641,69.442648 149.90754,75.936512 147.32715,85.281672 C 143.89194,95.546228 139.66432,105.70675 137.375,116.25 C 136.06042,120.4744 138.14657,125.24429 142.5625,126.46875 C 153.78599,130.09816 167.5481,124.66922 171.43723,113.16138 C 172.61741,110.33949 173.64969,107.46244 174.625,104.5625 C 170.03125,104.5625 165.4375,104.5625 160.84375,104.5625 C 158.83045,109.07015 158.43842,114.74788 155.03125,118.375 C 153.39039,119.59039 149.88805,118.87179 150.71875,116.21875 C 154.15287,104.7024 158.30967,93.249594 162.25481,81.850962 C 162.78065,79.175567 165.91053,76.616865 168.46875,78.46875 C 169.76192,80.964499 167.44514,83.890011 167.0156,86.419632 C 166.83599,88.759569 163.33734,93.473934 165.34375,94.25 C 169.60417,94.25 173.86458,94.25 178.125,94.25 C 179.86604,88.248591 183.00602,82.281765 182.25,75.90625 C 180.56654,70.118882 173.60968,68.995946 168.4375,69.28125 z M 75.375,95.1875 C 70.144307,105.56068 64.826562,115.96036 59.5625,126.34375 C 63.989583,126.34375 68.416667,126.34375 72.84375,126.34375 C 76.768098,118.44382 80.683239,110.57611 84.25,102.5625 C 82.956976,110.45074 81.595199,118.35075 81.15625,126.34375 C 90.114583,126.34375 99.072917,126.34375 108.03125,126.34375 C 109.68385,123.06115 110.75825,118.87891 112.75,116.125 C 115.09998,116.53341 120.43011,114.63993 118.00927,118.68068 C 118.11588,121.00752 114.31051,126.32915 117.4375,126.34375 C 121.63542,126.34375 125.83333,126.34375 130.03125,126.34375 C 133.59375,107.70833 137.15625,89.072917 140.71875,70.4375 C 133.89583,70.4375 127.07292,70.4375 120.25,70.4375 C 111.44583,89.061512 102.6589,107.69369 93.84375,126.3125 C 94.892015,115.8417 95.774671,105.31764 96.875,94.875 C 101.3125,86.729167 105.75,78.583333 110.1875,70.4375 C 106.4375,70.4375 102.6875,70.4375 98.9375,70.4375 C 95.709016,76.364955 92.472602,82.288095 89.25,88.21875 C 90.264536,82.314514 90.883455,76.353076 91.8125,70.4375 C 87.385417,70.4375 82.958333,70.4375 78.53125,70.4375 C 77.479167,78.6875 76.427083,86.9375 75.375,95.1875 z M 127.40625,82.78125 C 125.28635,90.822373 123.34623,98.891577 121.46875,107.03125 C 119.44352,106.50108 113.54551,108.55502 116.10666,104.9585 C 119.98705,95.881108 124.24059,87.17243 128.53125,78.25 C 128.15625,79.760417 127.78125,81.270833 127.40625,82.78125 z"
     transform="matrix(1.6918527,0,0,2.9018086,-50.039329,-136.02212)"
     id="path6966"
     style="font-size:72px;font-style:italic;font-variant:normal;font-weight:normal;font-stretch:normal;text-align:start;line-height:125%;writing-mode:lr-tb;text-anchor:start;opacity:0.09090899;fill:#787878;fill-opacity:1;stroke:#3f3f3f;stroke-width:2.25659895;stroke-linecap:round;stroke-linejoin:miter;stroke-miterlimit:10;stroke-opacity:0.4107143;filter:url(#filter6525);font-family:Impact;-inkscape-font-specification:Impact Italic" /><path
     d="M 168.4375,69.1875 C 159.24463,69.316178 150.24939,75.451543 147.53915,84.427242 C 144.09266,94.231482 140.43602,104.02769 137.6875,114.0625 C 136.69416,117.84175 136.17213,123.00436 140.15625,125.34375 C 145.49799,128.57877 152.56961,128.05958 158.21755,126.2326 C 164.16466,124.11813 169.20698,119.61107 171.3125,113.6875 C 172.6062,110.67088 173.72333,107.58673 174.75,104.46875 C 170.09375,104.46875 165.4375,104.46875 160.78125,104.46875 C 158.91227,108.92131 158.27326,114.14598 155.3125,118 C 153.83746,119.55465 149.9106,118.94576 150.84375,116.25 C 153.30273,107.21573 156.86131,98.272929 159.738,89.276015 C 161.28533,85.742281 161.65124,81.253888 164.53125,78.53125 C 165.99509,77.46658 169.41782,77.794543 168.75,80.25 C 167.65818,85.015124 165.69563,89.644503 164.21875,94.34375 C 168.875,94.34375 173.53125,94.34375 178.1875,94.34375 C 179.96632,88.437979 182.92118,82.548058 182.4375,76.28125 C 181.03694,70.13612 173.78462,68.873447 168.4375,69.1875 z M 75.28125,95.1875 C 69.991183,105.60497 64.697649,116.0207 59.40625,126.4375 C 63.90625,126.4375 68.40625,126.4375 72.90625,126.4375 C 76.706091,118.75943 80.540589,111.10656 84.03125,103.28125 C 82.783075,110.96218 81.466787,118.65511 81.0625,126.4375 C 90.072917,126.4375 99.083333,126.4375 108.09375,126.4375 C 109.56799,123.0338 111.00105,119.61098 112.5,116.21875 C 114.21226,116.58164 117.88037,115.50661 118.4375,116.71875 C 117.5625,119.95833 116.6875,123.19792 115.8125,126.4375 C 120.58333,126.4375 125.35417,126.4375 130.125,126.4375 C 133.69792,107.73958 137.27083,89.041667 140.84375,70.34375 C 133.95833,70.34375 127.07292,70.34375 120.1875,70.34375 C 111.45531,88.82148 102.74767,107.31087 94,125.78125 C 95.010903,115.50448 95.884847,105.19521 96.96875,94.9375 C 101.4375,86.739583 105.90625,78.541667 110.375,70.34375 C 106.53125,70.34375 102.6875,70.34375 98.84375,70.34375 C 95.710408,76.115706 92.556739,81.876661 89.4375,87.65625 C 90.418352,81.906408 90.993153,76.097871 91.9375,70.34375 C 87.447917,70.34375 82.958333,70.34375 78.46875,70.34375 C 77.40625,78.625 76.34375,86.90625 75.28125,95.1875 z M 127.3125,82.75 C 125.19323,90.777227 123.1886,98.835613 121.375,106.9375 C 119.81975,106.41819 115.0919,108.04291 115.77844,106.0056 C 119.626,96.890183 123.95362,87.987438 128.21875,79.0625 C 127.91667,80.291667 127.61458,81.520833 127.3125,82.75 z"
     transform="matrix(1.6918527,0,0,2.9018086,-50.039329,-136.02212)"
     id="path6968"
     style="font-size:72px;font-style:italic;font-variant:normal;font-weight:normal;font-stretch:normal;text-align:start;line-height:125%;writing-mode:lr-tb;text-anchor:start;opacity:0.09090899;fill:#787878;fill-opacity:1;stroke:#3f3f3f;stroke-width:2.25659895;stroke-linecap:round;stroke-linejoin:miter;stroke-miterlimit:10;stroke-opacity:0.4107143;filter:url(#filter6525);font-family:Impact;-inkscape-font-specification:Impact Italic" /><path
     d="M 168.4375,69.09375 C 159.483,69.255594 150.57289,74.988387 147.75,83.65625 C 144.33738,92.746085 141.28574,101.99238 138.31088,111.23511 C 137.3755,115.31882 135.54072,120.18429 138.37498,123.875 C 141.4828,127.48763 146.86287,127.89658 151.40623,127.6875 C 158.67652,127.32688 166.14676,123.4352 169.74998,117.09375 C 171.93345,113.06219 173.40789,108.69738 174.90623,104.375 C 170.17706,104.375 165.4479,104.375 160.71873,104.375 C 158.97504,108.77305 158.09624,113.68769 155.53123,117.65625 C 154.43158,119.02479 151.07421,119.36944 150.84373,117.125 C 151.7068,111.82599 154.09651,106.86111 155.62322,101.71285 C 158.17836,94.632651 160.17855,87.330515 163.12498,80.40625 C 163.85328,78.358909 166.88679,77.167326 168.53123,78.84375 C 169.05874,81.140568 167.56454,83.530814 167.02116,85.789048 C 166.03493,88.671865 165.04871,91.554683 164.06248,94.4375 C 168.79165,94.4375 173.52081,94.4375 178.24998,94.4375 C 180.07169,88.611281 182.82748,82.785692 182.59373,76.6875 C 181.79827,71.253351 175.77435,69.077797 170.85649,69.081261 C 170.05064,69.037491 169.24348,69.073361 168.43748,69.093751 L 168.4375,69.09375 z M 75.1875,95.15625 C 69.904176,105.6218 64.557636,116.07171 59.25,126.53125 C 63.822917,126.53125 68.395833,126.53125 72.96875,126.53125 C 76.636933,119.04608 80.413691,111.6138 83.8125,104 C 82.512472,111.49291 81.386036,118.92875 80.96875,126.53125 C 90.041667,126.53125 99.114583,126.53125 108.1875,126.53125 C 109.64989,123.12688 111.08093,119.70799 112.5625,116.3125 C 114.53125,116.3125 116.5,116.3125 118.46875,116.3125 C 117.49725,119.70537 116.6222,123.12729 115.6875,126.53125 C 120.54167,126.53125 125.39583,126.53125 130.25,126.53125 C 133.83333,107.77083 137.41667,89.010417 141,70.25 C 134.04167,70.25 127.08333,70.25 120.125,70.25 C 111.4655,88.571371 102.8323,106.90526 94.15625,125.21875 C 95.129183,115.13902 95.996819,105.02394 97.0625,94.96875 C 101.55208,86.729167 106.04167,78.489583 110.53125,70.25 C 106.61458,70.25 102.69792,70.25 98.78125,70.25 C 95.729877,75.864969 92.672315,81.476579 89.625,87.09375 C 90.631839,81.502675 91.081891,75.86221 92.0625,70.25 C 87.5,70.25 82.9375,70.25 78.375,70.25 C 77.3125,78.552083 76.25,86.854167 75.1875,95.15625 z M 127.21875,82.71875 C 125.11674,90.726307 123.08306,98.757632 121.3125,106.84375 C 119.39583,106.84375 117.47917,106.84375 115.5625,106.84375 C 119.31123,97.724818 123.65147,88.859864 127.90625,79.96875 C 127.67708,80.885417 127.44792,81.802083 127.21875,82.71875 z"
     transform="matrix(1.6918527,0,0,2.9018086,-50.039329,-136.02212)"
     id="path6970"
     style="font-size:72px;font-style:italic;font-variant:normal;font-weight:normal;font-stretch:normal;text-align:start;line-height:125%;writing-mode:lr-tb;text-anchor:start;opacity:0.09090899;fill:#787878;fill-opacity:1;stroke:#3f3f3f;stroke-width:2.25659895;stroke-linecap:round;stroke-linejoin:miter;stroke-miterlimit:10;stroke-opacity:0.4107143;filter:url(#filter6525);font-family:Impact;-inkscape-font-specification:Impact Italic" /><path
     d="M 168.40625,68.96875 C 160.98204,69.202048 153.63821,73.035533 149.65625,79.34375 C 146.71999,84.858941 145.01851,91.133057 142.90176,97.069499 C 140.66126,104.19784 137.52029,111.15925 136.75,118.65625 C 136.46772,121.78855 138.18266,124.69454 140.9375,126.09375 C 145.21437,128.17792 150.42035,128.19935 155.09375,127.34375 C 160.22931,126.17177 165.01415,123.50712 168.33702,119.43247 C 171.54185,114.96543 173.2108,109.46462 175.03125,104.25 C 170.23958,104.25 165.44792,104.25 160.65625,104.25 C 159.13055,108.3439 158.06209,112.69169 156.11585,116.57775 C 155.4692,118.4661 152.70349,119.24567 151.28125,118.0625 C 150.51055,116.60821 151.45821,114.85901 151.77803,113.37149 C 155.30894,103.06459 158.69086,92.700303 162.34375,82.4375 C 163.0331,80.567538 164.03626,78.138226 166.41824,78.204501 C 167.51716,77.982403 168.96019,78.712725 168.56334,80.010174 C 167.64147,84.544167 165.75774,88.825994 164.38746,93.238343 C 163.21968,94.981909 165.10029,94.541749 166.3375,94.5625 C 170.32917,94.5625 174.32083,94.5625 178.3125,94.5625 C 180.11354,89.011758 182.50133,83.490247 182.78125,77.59375 C 182.76075,73.424677 179.09703,70.415336 175.28125,69.5625 C 173.04653,68.997145 170.70406,68.874906 168.40625,68.96875 L 168.40625,68.96875 z M 75.0625,95.15625 C 69.7962,105.66981 64.407226,116.15399 59.09375,126.65625 C 63.729167,126.65625 68.364583,126.65625 73,126.65625 C 76.581426,119.36745 80.273938,112.13277 83.59375,104.71875 C 82.344511,111.98435 81.240143,119.2903 80.8125,126.65625 C 89.947917,126.65625 99.083333,126.65625 108.21875,126.65625 C 109.69371,123.25337 111.11984,119.82402 112.625,116.4375 C 114.52083,116.4375 116.41667,116.4375 118.3125,116.4375 C 117.40504,119.84614 116.47761,123.24959 115.5625,126.65625 C 120.47917,126.65625 125.39583,126.65625 130.3125,126.65625 C 133.91667,107.8125 137.52083,88.96875 141.125,70.125 C 134.11458,70.125 127.10417,70.125 120.09375,70.125 C 111.49658,88.300447 102.9269,106.48905 94.3125,124.65625 C 95.278694,114.78426 96.194319,104.9063 97.125,95.03125 C 101.64583,86.729167 106.16667,78.427083 110.6875,70.125 C 106.70833,70.125 102.72917,70.125 98.75,70.125 C 95.770386,75.603923 92.794545,81.084901 89.8125,86.5625 C 90.774155,81.107856 91.272226,75.586022 92.1875,70.125 C 87.541667,70.125 82.895833,70.125 78.25,70.125 C 77.1875,78.46875 76.125,86.8125 75.0625,95.15625 z M 127.125,82.71875 C 125.01975,90.685405 123.02953,98.68011 121.21875,106.71875 C 119.375,106.71875 117.53125,106.71875 115.6875,106.71875 C 119.37734,97.949431 123.49764,89.356357 127.625,80.78125 C 127.45833,81.427083 127.29167,82.072917 127.125,82.71875 z"
     transform="matrix(1.6918527,0,0,2.9018086,-50.039329,-136.02212)"
     id="path6972"
     style="font-size:72px;font-style:italic;font-variant:normal;font-weight:normal;font-stretch:normal;text-align:start;line-height:125%;writing-mode:lr-tb;text-anchor:start;opacity:0.09090899;fill:#787878;fill-opacity:1;stroke:#3f3f3f;stroke-width:2.25659895;stroke-linecap:round;stroke-linejoin:miter;stroke-miterlimit:10;stroke-opacity:0.4107143;filter:url(#filter6525);font-family:Impact;-inkscape-font-specification:Impact Italic" /><path
     d="M 168.40625,68.875 C 163.54564,69.036918 158.75117,70.705509 154.84375,73.59375 C 153.97146,74.210763 153.04033,75.106033 152.22971,75.919862 C 151.32543,76.902553 150.55774,77.861199 149.7975,78.986499 C 147.96961,81.922195 146.92915,85.254465 145.72757,88.478546 C 143.37013,95.400959 140.97785,102.31253 138.69657,109.26035 C 137.74795,112.4114 136.8523,115.62765 136.65625,118.925 C 136.52839,121.15713 137.40472,123.47087 139.06573,124.8893 C 141.75592,127.21076 145.43203,127.8487 148.88125,127.9375 C 153.9048,128.14521 159.02578,126.86009 163.21154,124.04365 C 164.29599,123.37862 165.34007,122.55584 166.28125,121.8125 C 167.35785,120.81681 168.27879,119.78109 169.05081,118.58519 C 171.51024,114.80401 172.95488,110.47509 174.46875,106.25 C 174.70833,105.55208 174.94792,104.85417 175.1875,104.15625 C 170.3125,104.15625 165.4375,104.15625 160.5625,104.15625 C 159.21714,107.94085 158.11387,111.81758 156.5431,115.51768 C 155.99874,116.85994 155.13349,118.31201 153.55233,118.46791 C 152.57867,118.62333 151.1542,118.45891 151.08161,117.27351 C 151.14851,114.9196 152.14807,112.70803 152.85514,110.48766 C 155.96748,101.37033 159.00973,92.227521 162.16921,83.127282 C 162.90084,81.503517 163.36598,79.516179 165,78.59375 C 165.99135,78.267687 167.29044,78.04593 168.15625,78.71875 C 168.85172,79.448592 168.30536,80.590695 168.18965,81.470667 C 166.86134,85.91151 165.24694,90.259872 163.78127,94.65625 C 168.65627,94.65625 173.53127,94.65625 178.40627,94.65625 C 180.0366,89.716153 181.96163,84.820078 182.72924,79.650549 C 183.09268,77.479918 182.83376,75.097247 181.44002,73.32625 C 180.92948,72.571612 180.14524,71.834667 179.3874,71.316876 C 176.25798,69.048366 172.14611,68.761006 168.40627,68.875 L 168.40625,68.875 z M 74.96875,95.125 C 69.642909,105.67345 64.255696,116.2072 58.90625,126.75 C 63.635417,126.75 68.364583,126.75 73.09375,126.75 C 75.338657,122.13421 77.649512,117.55038 79.894803,112.93542 C 81.074643,110.44535 82.232771,107.94503 83.375,105.4375 C 82.171971,112.49554 81.111751,119.5942 80.71875,126.75 C 89.916667,126.75 99.114583,126.75 108.3125,126.75 C 109.7721,123.34434 111.22161,119.934 112.6875,116.53125 C 114.52083,116.53125 116.35417,116.53125 118.1875,116.53125 C 117.27536,119.93868 116.35341,123.34355 115.4375,126.75 C 120.41667,126.75 125.39583,126.75 130.375,126.75 C 133.98958,107.84375 137.60417,88.9375 141.21875,70.03125 C 134.14583,70.03125 127.07292,70.03125 120,70.03125 C 111.48983,88.052198 102.9777,106.07223 94.46875,124.09375 C 95.401805,114.41846 96.31082,104.73983 97.21875,95.0625 C 101.76042,86.71875 106.30208,78.375 110.84375,70.03125 C 106.79167,70.03125 102.73958,70.03125 98.6875,70.03125 C 95.78924,75.352825 92.910472,80.685178 90,86 C 90.918247,80.699671 91.418496,75.339119 92.28125,70.03125 C 87.583333,70.03125 82.885417,70.03125 78.1875,70.03125 C 77.114583,78.395833 76.041667,86.760417 74.96875,95.125 z M 127.03125,82.6875 C 124.93819,90.632184 122.94048,98.60748 121.15625,106.625 C 119.38542,106.625 117.61458,106.625 115.84375,106.625 C 119.38477,98.2019 123.35488,89.967262 127.28125,81.71875 C 127.19795,82.041667 127.11458,82.364583 127.03125,82.6875 z"
     transform="matrix(1.6918527,0,0,2.9018086,-50.039329,-136.02212)"
     id="path6974"
     style="font-size:72px;font-style:italic;font-variant:normal;font-weight:normal;font-stretch:normal;text-align:start;line-height:125%;writing-mode:lr-tb;text-anchor:start;opacity:0.09090899;fill:#787878;fill-opacity:1;stroke:#3f3f3f;stroke-width:2.25659895;stroke-linecap:round;stroke-linejoin:miter;stroke-miterlimit:10;stroke-opacity:0.4107143;filter:url(#filter6525);font-family:Impact;-inkscape-font-specification:Impact Italic" /><path
     d="M 168.40625,68.6875 C 163.50603,68.839627 158.67457,70.524719 154.71875,73.40625 C 152.80946,74.994119 150.99334,76.778149 149.61,78.861499 C 147.81789,81.799413 146.77248,85.112292 145.57292,88.321596 C 143.2033,95.275066 140.8014,102.21858 138.50907,109.19785 C 137.5466,112.39997 136.63059,115.67067 136.46875,119.025 C 136.36807,121.26084 137.19967,123.57896 138.93088,125.02463 C 140.90723,126.84469 143.65886,127.61926 146.29192,127.93327 C 151.41829,128.56512 156.79241,127.83947 161.375,125.375 C 164.04926,123.96555 166.53539,122.15398 168.4375,119.78125 C 170.28285,117.51209 171.41041,114.72419 172.54248,112.03283 C 173.60715,109.3823 174.54811,106.68203 175.4375,103.96875 C 170.4375,103.96875 165.4375,103.96875 160.4375,103.96875 C 159.0379,107.81724 157.93155,111.7793 156.31422,115.54622 C 155.76669,116.81536 154.87751,118.22968 153.34375,118.3125 C 152.55249,118.3769 151.39131,118.2626 151.28825,117.30924 C 151.23385,115.90156 151.75925,114.52294 152.1482,113.17872 C 155.5632,103.18727 158.89824,93.16583 162.35671,83.189782 C 162.9363,81.851266 163.41022,80.333656 164.36823,79.304627 C 165.14182,78.514751 166.52765,78.292596 167.625,78.625 C 168.48164,78.885806 168.364,79.89384 168.17628,80.580649 C 167.41338,83.829258 166.15977,86.94168 165.13155,90.113305 C 164.6016,91.691147 164.04401,93.260841 163.53125,94.84375 C 168.53125,94.84375 173.53125,94.84375 178.53125,94.84375 C 180.13572,90.092039 181.95953,85.368584 182.8036,80.40603 C 183.18462,78.301885 183.24573,76.022335 182.1875,74.09375 C 181.43835,72.73672 180.26394,71.635119 178.98475,70.772101 C 175.85175,68.848535 171.99689,68.574792 168.40625,68.6875 L 168.40625,68.6875 z M 78,69.9375 C 76.928406,78.333418 75.846233,86.728661 74.78125,95.125 C 69.385711,105.72932 63.987817,116.33244 58.59375,126.9375 C 63.46875,126.9375 68.34375,126.9375 73.21875,126.9375 C 75.472302,122.3112 77.783639,117.71284 80.039536,113.08831 C 81.018673,111.02337 81.981231,108.95061 82.9375,106.875 C 81.843953,113.521 80.865806,120.20394 80.53125,126.9375 C 89.833333,126.9375 99.135417,126.9375 108.4375,126.9375 C 109.90338,123.53475 111.35291,120.12442 112.8125,116.71875 C 114.52083,116.71875 116.22917,116.71875 117.9375,116.71875 C 117.02159,120.1252 116.09964,123.53007 115.1875,126.9375 C 120.3125,126.9375 125.4375,126.9375 130.5625,126.9375 C 134.17681,107.90455 137.82311,88.872256 141.46875,69.84375 C 134.27083,69.84375 127.07292,69.84375 119.875,69.84375 C 111.50757,87.561119 103.14631,105.28148 94.78125,123 C 95.65625,113.72917 96.53125,104.45833 97.40625,95.1875 C 101.994,86.736762 106.62974,78.308593 111.1875,69.84375 C 106.97917,69.84375 102.77083,69.84375 98.5625,69.84375 C 95.813055,74.839015 93.107547,79.867109 90.375,84.875 C 91.206938,79.880596 91.64717,74.828568 92.53125,69.84375 C 87.6875,69.84375 82.84375,69.84375 78,69.84375 L 78,69.9375 z M 125.0625,89.46875 C 123.62484,95.107194 122.29007,100.77086 120.96875,106.4375 C 119.36458,106.4375 117.76042,106.4375 116.15625,106.4375 C 119.04949,99.451675 122.32193,92.63074 125.55756,85.798977 C 125.90295,85.074318 126.24835,84.349659 126.59375,83.625 C 126.08333,85.572917 125.57292,87.520833 125.0625,89.46875 L 125.0625,89.46875 z"
     transform="matrix(1.6918527,0,0,2.9018086,-50.039329,-136.02212)"
     id="path6976"
     style="font-size:72px;font-style:italic;font-variant:normal;font-weight:normal;font-stretch:normal;text-align:start;line-height:125%;writing-mode:lr-tb;text-anchor:start;opacity:0.09090899;fill:#787878;fill-opacity:1;stroke:#3f3f3f;stroke-width:2.25659895;stroke-linecap:round;stroke-linejoin:miter;stroke-miterlimit:10;stroke-opacity:0.4107143;filter:url(#filter6525);font-family:Impact;-inkscape-font-specification:Impact Italic" /><path
     d="M 168.40625,68.6875 C 163.50603,68.839627 158.67457,70.524719 154.71875,73.40625 C 152.80946,74.994119 150.99334,76.778149 149.61,78.861499 C 147.81789,81.799413 146.77248,85.112292 145.57292,88.321596 C 143.2033,95.275067 140.8014,102.21858 138.50907,109.19785 C 137.5466,112.39997 136.63059,115.67067 136.46875,119.025 C 136.36807,121.26084 137.19967,123.57896 138.93088,125.02463 C 140.90723,126.84469 143.65886,127.61926 146.29192,127.93327 C 151.41829,128.56512 156.79241,127.83947 161.375,125.375 C 164.04926,123.96555 166.53539,122.15398 168.4375,119.78125 C 170.28285,117.51209 171.41041,114.72419 172.54248,112.03283 C 173.60715,109.3823 174.54811,106.68203 175.4375,103.96875 C 170.4375,103.96875 165.4375,103.96875 160.4375,103.96875 C 159.0379,107.81724 157.93155,111.7793 156.31422,115.54622 C 155.76669,116.81536 154.87751,118.22968 153.34375,118.3125 C 152.55249,118.3769 151.39131,118.2626 151.28825,117.30924 C 151.23385,115.90156 151.75925,114.52294 152.1482,113.17872 C 155.5632,103.18727 158.89824,93.16583 162.35671,83.189782 C 162.9363,81.851266 163.41022,80.333656 164.36823,79.304627 C 165.14182,78.514751 166.52765,78.292596 167.625,78.625 C 168.48164,78.885806 168.364,79.89384 168.17628,80.580649 C 167.41338,83.829258 166.15977,86.94168 165.13155,90.113306 C 164.6016,91.691147 164.04401,93.260841 163.53125,94.84375 C 168.53125,94.84375 173.53125,94.84375 178.53125,94.84375 C 180.13572,90.092039 181.95953,85.368584 182.8036,80.40603 C 183.18462,78.301885 183.24573,76.022335 182.1875,74.09375 C 181.43835,72.73672 180.26394,71.635119 178.98475,70.772101 C 175.85175,68.848535 171.99689,68.574792 168.40625,68.6875 L 168.40625,68.6875 z M 78,69.9375 C 76.928406,78.333418 75.846233,86.728661 74.78125,95.125 C 69.385711,105.72932 63.987817,116.33244 58.59375,126.9375 C 63.46875,126.9375 68.34375,126.9375 73.21875,126.9375 C 75.472302,122.3112 77.783639,117.71284 80.039536,113.08831 C 81.018673,111.02337 81.981231,108.95061 82.9375,106.875 C 81.843953,113.521 80.865806,120.20394 80.53125,126.9375 C 89.833333,126.9375 99.135417,126.9375 108.4375,126.9375 C 109.90338,123.53475 111.35291,120.12442 112.8125,116.71875 C 114.52083,116.71875 116.22917,116.71875 117.9375,116.71875 C 117.02159,120.1252 116.09964,123.53007 115.1875,126.9375 C 120.3125,126.9375 125.4375,126.9375 130.5625,126.9375 C 134.17681,107.90455 137.82311,88.872256 141.46875,69.84375 C 134.27083,69.84375 127.07292,69.84375 119.875,69.84375 C 111.50757,87.561119 103.14631,105.28148 94.78125,123 C 95.65625,113.72917 96.53125,104.45833 97.40625,95.1875 C 101.994,86.736762 106.62974,78.308593 111.1875,69.84375 C 106.97917,69.84375 102.77083,69.84375 98.5625,69.84375 C 95.813055,74.839015 93.107547,79.867109 90.375,84.875 C 91.206938,79.880596 91.64717,74.828568 92.53125,69.84375 C 87.6875,69.84375 82.84375,69.84375 78,69.84375 L 78,69.9375 z M 125.0625,89.46875 C 123.62484,95.107194 122.29007,100.77086 120.96875,106.4375 C 119.36458,106.4375 117.76042,106.4375 116.15625,106.4375 C 119.04949,99.451675 122.32193,92.63074 125.55756,85.798977 C 125.90295,85.074318 126.24835,84.349659 126.59375,83.625 C 126.08333,85.572917 125.57292,87.520833 125.0625,89.46875 L 125.0625,89.46875 z"
     transform="matrix(1.6918527,0,0,2.9018086,-50.039329,-136.02212)"
     id="path6978"
     style="font-size:72px;font-style:italic;font-variant:normal;font-weight:normal;font-stretch:normal;text-align:start;line-height:125%;writing-mode:lr-tb;text-anchor:start;opacity:0.09090899;fill:#787878;fill-opacity:1;stroke:#3f3f3f;stroke-width:2.25659895;stroke-linecap:round;stroke-linejoin:miter;stroke-miterlimit:10;stroke-opacity:0.4107143;filter:url(#filter6525);font-family:Impact;-inkscape-font-specification:Impact Italic" /><path
     d="M 168.40625,68.59375 C 159.68592,68.803941 151.03966,74.025212 147.77566,82.234045 C 144.39731,90.79104 141.69324,99.607425 138.68881,108.30403 C 137.50815,112.32223 136.08893,116.47718 136.46875,120.71875 C 137.01285,124.77383 140.96784,127.15985 144.71875,127.78125 C 151.03083,128.94445 157.92887,127.97306 163.28125,124.34375 C 166.75987,122.37492 169.55644,119.12701 171.1875,115.40625 C 172.94832,111.68541 174.25596,107.76569 175.59375,103.875 C 170.51042,103.875 165.42708,103.875 160.34375,103.875 C 158.80056,108.13335 157.63915,112.71372 155.625,116.6875 C 154.93286,118.06789 152.66835,118.85834 151.53125,117.6875 C 151.02248,116.19426 151.94925,114.58434 152.27159,113.11446 C 155.78324,102.9415 159.10186,92.696813 162.71875,82.5625 C 163.40455,80.797938 164.34195,78.401413 166.64882,78.563071 C 167.69217,78.395866 168.61156,79.315672 168.12149,80.353207 C 166.89339,85.312301 164.94613,90.075876 163.375,94.9375 C 168.45833,94.9375 173.54167,94.9375 178.625,94.9375 C 180.42734,89.255238 182.89972,83.623795 183.15625,77.59375 C 183.19465,73.115473 179.12001,69.886235 175.01819,69.090486 C 172.85249,68.633252 170.61673,68.491121 168.40625,68.59375 z M 77.90625,69.90625 C 76.781301,78.333955 75.830542,86.815328 74.596865,95.209534 C 69.215232,105.81907 63.795006,116.41023 58.4375,127.03125 C 63.385417,127.03125 68.333333,127.03125 73.28125,127.03125 C 76.445237,120.56275 79.761059,114.16267 82.71875,107.59375 C 81.65848,114.03347 80.778043,120.51353 80.40625,127.03125 C 89.770833,127.03125 99.135417,127.03125 108.5,127.03125 C 110.00492,123.6446 111.43146,120.21548 112.90625,116.8125 C 114.54167,116.8125 116.17708,116.8125 117.8125,116.8125 C 116.89738,120.21915 115.96998,123.62261 115.0625,127.03125 C 120.25,127.03125 125.4375,127.03125 130.625,127.03125 C 134.29053,107.93959 137.89746,88.834242 141.59375,69.75 C 134.33333,69.75 127.07292,69.75 119.8125,69.75 C 111.48171,87.285847 103.21312,104.85687 94.90625,122.40625 C 95.770833,113.34375 96.635417,104.28125 97.5,95.21875 C 102.12579,86.729601 106.74528,78.236987 111.375,69.75 C 107.08333,69.75 102.79167,69.75 98.5,69.75 C 95.836891,74.593735 93.211215,79.460073 90.5625,84.3125 C 91.339082,79.470735 91.801531,74.584568 92.625,69.75 C 87.71875,69.75 82.8125,69.75 77.90625,69.75 L 77.90625,69.90625 z M 124.96875,89.4375 C 123.53974,95.055063 122.20911,100.69521 120.90625,106.34375 C 119.36458,106.34375 117.82292,106.34375 116.28125,106.34375 C 119.3907,99.038777 122.78955,91.851158 126.21875,84.6875 C 125.80208,86.270833 125.38542,87.854167 124.96875,89.4375 z"
     transform="matrix(1.6918527,0,0,2.9018086,-50.039329,-136.02212)"
     id="path6980"
     style="font-size:72px;font-style:italic;font-variant:normal;font-weight:normal;font-stretch:normal;text-align:start;line-height:125%;writing-mode:lr-tb;text-anchor:start;opacity:0.09090899;fill:#787878;fill-opacity:1;stroke:#3f3f3f;stroke-width:2.25659895;stroke-linecap:round;stroke-linejoin:miter;stroke-miterlimit:10;stroke-opacity:0.4107143;filter:url(#filter6525);font-family:Impact;-inkscape-font-specification:Impact Italic" /><path
     d="M 168.40625,68.46875 C 159.0863,68.707241 149.99056,74.668827 147.07608,83.684793 C 143.74397,92.835333 140.57146,102.07122 137.67339,111.36935 C 136.6855,115.5063 134.94258,120.54848 137.90625,124.25 C 141.54619,128.39694 147.77505,128.64097 152.9375,128.1875 C 160.93226,127.22973 168.71023,122.31146 171.6628,114.62238 C 173.26139,111.09556 174.49691,107.42154 175.71875,103.75 C 170.57292,103.75 165.42708,103.75 160.28125,103.75 C 158.55357,108.22207 157.63471,113.13556 155.09375,117.21875 C 154.10023,118.54435 150.82402,118.61405 151.5,116.375 C 153.42714,109.16389 156.23003,102.19768 158.49881,95.082011 C 160.40141,90.015443 161.60855,84.628906 164.15625,79.84375 C 164.93352,78.654593 167.1748,78.127962 168.0625,79.3125 C 167.85655,82.896979 165.98626,86.368506 165.00855,89.861491 C 164.42603,91.596348 163.81251,93.321159 163.25,95.0625 C 168.39583,95.0625 173.54167,95.0625 178.6875,95.0625 C 180.52971,89.071071 183.33583,83.075819 183.23004,76.794414 C 182.60344,71.426786 176.88402,68.713114 171.96875,68.53125 C 170.78513,68.406078 169.59386,68.428938 168.40625,68.46875 L 168.40625,68.46875 z M 77.78125,69.90625 C 76.630619,78.380906 75.734123,86.936492 74.426437,95.36112 C 69.035333,105.96002 63.63594,116.55474 58.25,127.15625 C 63.28125,127.15625 68.3125,127.15625 73.34375,127.15625 C 76.382984,120.86834 79.619293,114.67609 82.5,108.3125 C 81.522529,114.56647 80.557058,120.80272 80.3125,127.15625 C 89.729167,127.15625 99.145833,127.15625 108.5625,127.15625 C 110.04377,123.76062 111.47534,120.34198 112.9375,116.9375 C 114.26264,117.36504 117.94059,115.99049 117.45303,117.80642 C 116.597,120.92089 115.79889,124.05281 114.90625,127.15625 C 120.17708,127.15625 125.44792,127.15625 130.71875,127.15625 C 134.36043,107.97566 138.015,88.793578 141.71875,69.625 C 134.39583,69.625 127.07292,69.625 119.75,69.625 C 111.52291,87.00636 103.31389,104.39651 95.09375,121.78125 C 95.9375,112.90625 96.78125,104.03125 97.625,95.15625 C 102.259,86.645068 106.90424,78.139948 111.53125,69.625 C 107.16667,69.625 102.80208,69.625 98.4375,69.625 C 95.900541,74.381491 93.285662,79.101343 90.71875,83.84375 C 91.547188,79.141066 91.935988,74.326507 92.75,69.625 C 87.78125,69.625 82.8125,69.625 77.84375,69.625 L 77.78125,69.90625 z M 124.875,89.4375 C 123.46314,95.014596 122.11177,100.60716 120.84375,106.21875 C 119.60503,105.8038 115.60837,107.23582 116.92565,105.10914 C 119.74074,98.538854 122.79953,92.076496 125.875,85.625 C 125.54167,86.895833 125.20833,88.166667 124.875,89.4375 z"
     transform="matrix(1.6918527,0,0,2.9018086,-50.039329,-136.02212)"
     id="path6982"
     style="font-size:72px;font-style:italic;font-variant:normal;font-weight:normal;font-stretch:normal;text-align:start;line-height:125%;writing-mode:lr-tb;text-anchor:start;opacity:0.09090899;fill:#787878;fill-opacity:1;stroke:#3f3f3f;stroke-width:2.25659895;stroke-linecap:round;stroke-linejoin:miter;stroke-miterlimit:10;stroke-opacity:0.4107143;filter:url(#filter6525);font-family:Impact;-inkscape-font-specification:Impact Italic" /><path
     d="M 168.40625,68.375 C 158.69087,68.552691 149.40209,75.073799 146.65625,84.5 C 143.24014,94.352614 139.50764,104.21993 136.82467,114.26659 C 135.65655,118.32829 135.65333,123.58526 139.71875,126.03125 C 145.52857,129.47771 153.11176,128.96263 159.18272,126.72355 C 165.13915,124.41939 170.08486,119.72012 172.21585,113.63056 C 173.60918,110.37196 174.72329,107.00691 175.875,103.65625 C 170.65625,103.65625 165.4375,103.65625 160.21875,103.65625 C 158.36039,108.20953 157.62042,113.38753 154.75,117.4375 C 153.47993,118.60846 150.47768,118.09361 151.75,115.875 C 154.64155,105.92898 158.42159,96.040955 161.64454,86.116848 C 162.80349,83.695626 163.04167,79.820649 165.875,78.875 C 167.10602,78.406169 168.70746,79.144371 167.84375,80.65625 C 166.59418,85.504467 164.65768,90.332398 163.09375,95.15625 C 168.3125,95.15625 173.53125,95.15625 178.75,95.15625 C 180.60505,88.951118 183.73723,82.738024 183.25,76.125 C 181.77374,69.640016 174.14472,67.979565 168.40625,68.375 z M 77.6875,69.875 C 76.509792,78.376026 75.683098,86.985144 74.28747,95.419064 C 68.886742,106.02792 63.508516,116.64841 58.09375,127.25 C 63.197917,127.25 68.302083,127.25 73.40625,127.25 C 76.299002,121.16885 79.456323,115.21999 82.25,109.09375 C 81.295796,115.11122 80.499453,121.1617 80.1875,127.25 C 89.666667,127.25 99.145833,127.25 108.625,127.25 C 110.12318,123.85741 111.55758,120.43522 113.03125,117.03125 C 115.49963,117.01235 118.93083,116.25626 116.83239,119.73439 C 116.14118,122.23741 115.50563,124.75664 114.78125,127.25 C 120.125,127.25 125.46875,127.25 130.8125,127.25 C 134.46424,108.00785 138.1994,88.779541 141.8125,69.53125 C 134.4375,69.53125 127.0625,69.53125 119.6875,69.53125 C 111.53043,86.765372 103.39771,104.01133 95.25,121.25 C 96.188897,112.45151 96.723933,103.52531 97.910322,94.805109 C 102.5183,86.383392 107.08546,77.938734 111.71875,69.53125 C 107.27083,69.53125 102.82292,69.53125 98.375,69.53125 C 95.93623,74.113365 93.409912,78.65297 90.9375,83.21875 C 91.660155,78.667246 92.104029,74.075694 92.875,69.53125 C 87.833333,69.53125 82.791667,69.53125 77.75,69.53125 L 77.6875,69.875 z M 124.78125,89.40625 C 123.36615,94.96177 122.04377,100.54013 120.75,106.125 C 117.8324,106.43985 115.4498,106.37336 117.86111,103.19086 C 120.29872,97.609023 122.91256,92.10705 125.5,86.59375 C 125.26042,87.53125 125.02083,88.46875 124.78125,89.40625 z"
     transform="matrix(1.6918527,0,0,2.9018086,-50.039329,-136.02212)"
     id="path6984"
     style="font-size:72px;font-style:italic;font-variant:normal;font-weight:normal;font-stretch:normal;text-align:start;line-height:125%;writing-mode:lr-tb;text-anchor:start;opacity:0.09090899;fill:#787878;fill-opacity:1;stroke:#3f3f3f;stroke-width:2.25659895;stroke-linecap:round;stroke-linejoin:miter;stroke-miterlimit:10;stroke-opacity:0.4107143;filter:url(#filter6525);font-family:Impact;-inkscape-font-specification:Impact Italic" /><path
     d="M 168.40625,68.28125 C 158.44537,68.447701 149.04851,75.238405 146.38965,84.937922 C 142.94349,95.258269 138.73031,105.45346 136.375,116.0625 C 135.09626,120.55883 137.0735,125.65711 141.65625,127.1875 C 153.3307,131.4687 168.25722,125.71736 172.34794,113.56945 C 173.73593,110.29901 174.86724,106.92953 176,103.5625 C 170.71875,103.5625 165.4375,103.5625 160.15625,103.5625 C 158.14327,108.13665 157.62849,113.6949 154.4375,117.53125 C 153.29829,118.4009 150.65819,117.93389 151.84375,115.90625 C 155.18014,104.81619 159.20297,93.704295 163,82.6875 C 163.46081,80.568995 165.44454,77.884852 167.8125,79.1875 C 167.41923,84.330464 164.6802,89.161756 163.33758,94.153224 C 162.85302,96.620011 168.62518,94.591163 170.65625,95.25 C 173.2772,94.705745 177.44732,96.343967 179.09889,94.433014 C 180.84032,88.32542 184.19622,82.135411 183.1875,75.65625 C 181.52149,69.405692 174.05119,67.929828 168.40625,68.28125 z M 77.59375,69.875 C 76.388493,78.401554 75.620349,87.065438 74.148222,95.508114 C 68.74222,106.11874 63.355674,116.73939 57.9375,127.34375 C 63.114583,127.34375 68.291667,127.34375 73.46875,127.34375 C 76.285666,121.43516 79.341277,115.64186 82.0625,109.6875 C 81.146301,115.53949 80.37843,121.42365 80.09375,127.34375 C 89.635417,127.34375 99.177083,127.34375 108.71875,127.34375 C 110.16166,123.93111 111.638,120.53232 113.09375,117.125 C 117.62344,116.04167 117.75827,118.32281 116.13256,121.95171 C 115.54221,124.65039 113.09932,128.71313 117.8125,127.34375 C 122.16667,127.34375 126.52083,127.34375 130.875,127.34375 C 134.58712,108.04709 138.283,88.745153 141.9375,69.4375 C 134.5,69.4375 127.0625,69.4375 119.625,69.4375 C 111.56489,86.547535 103.47703,103.64485 95.40625,120.75 C 96.35472,112.13439 96.782117,103.35971 98.051504,94.842073 C 102.65883,86.373605 107.27014,77.907303 111.875,69.4375 C 107.36876,69.611858 102.43419,69.093168 98.1875,69.6875 C 95.833333,74.010417 93.479167,78.333333 91.125,82.65625 C 91.791389,78.255567 92.228358,73.82237 93,69.4375 C 87.885417,69.4375 82.770833,69.4375 77.65625,69.4375 L 77.59375,69.875 z M 124.6875,89.375 C 123.23063,94.850842 121.9273,100.46972 120.65625,106.03125 C 116.03744,107.13611 116.95562,104.55226 118.72379,101.49474 C 120.8166,96.754127 122.99197,92.165916 125.1875,87.5 C 125.02083,88.125 124.85417,88.75 124.6875,89.375 z"
     transform="matrix(1.6918527,0,0,2.9018086,-50.039329,-136.02212)"
     id="path6986"
     style="font-size:72px;font-style:italic;font-variant:normal;font-weight:normal;font-stretch:normal;text-align:start;line-height:125%;writing-mode:lr-tb;text-anchor:start;opacity:0.09090899;fill:#787878;fill-opacity:1;stroke:#3f3f3f;stroke-width:2.25659895;stroke-linecap:round;stroke-linejoin:miter;stroke-miterlimit:10;stroke-opacity:0.4107143;filter:url(#filter6525);font-family:Impact;-inkscape-font-specification:Impact Italic" /><path
     d="M 168.4375,69.28125 C 158.86641,69.442648 149.90754,75.936512 147.32715,85.281672 C 143.89194,95.546228 139.66432,105.70675 137.375,116.25 C 136.06042,120.4744 138.14657,125.24429 142.5625,126.46875 C 153.78599,130.09816 167.5481,124.66922 171.43723,113.16138 C 172.61741,110.33949 173.64969,107.46244 174.625,104.5625 C 170.03125,104.5625 165.4375,104.5625 160.84375,104.5625 C 158.83045,109.07015 158.43842,114.74788 155.03125,118.375 C 153.39039,119.59039 149.88805,118.87179 150.71875,116.21875 C 154.15287,104.7024 158.30967,93.249594 162.25481,81.850962 C 162.78065,79.175567 165.91053,76.616865 168.46875,78.46875 C 169.76192,80.964499 167.44514,83.890011 167.0156,86.419632 C 166.83599,88.759569 163.33734,93.473934 165.34375,94.25 C 169.60417,94.25 173.86458,94.25 178.125,94.25 C 179.86604,88.248591 183.00602,82.281765 182.25,75.90625 C 180.56654,70.118882 173.60968,68.995946 168.4375,69.28125 z M 75.375,95.1875 C 70.144307,105.56068 64.826562,115.96036 59.5625,126.34375 C 63.989583,126.34375 68.416667,126.34375 72.84375,126.34375 C 76.768098,118.44382 80.683239,110.57611 84.25,102.5625 C 82.956976,110.45074 81.595199,118.35075 81.15625,126.34375 C 90.114583,126.34375 99.072917,126.34375 108.03125,126.34375 C 109.68385,123.06115 110.75825,118.87891 112.75,116.125 C 115.09998,116.53341 120.43011,114.63993 118.00927,118.68068 C 118.11588,121.00752 114.31051,126.32915 117.4375,126.34375 C 121.63542,126.34375 125.83333,126.34375 130.03125,126.34375 C 133.59375,107.70833 137.15625,89.072917 140.71875,70.4375 C 133.89583,70.4375 127.07292,70.4375 120.25,70.4375 C 111.44583,89.061512 102.6589,107.69369 93.84375,126.3125 C 94.892015,115.8417 95.774671,105.31764 96.875,94.875 C 101.3125,86.729167 105.75,78.583333 110.1875,70.4375 C 106.4375,70.4375 102.6875,70.4375 98.9375,70.4375 C 95.709016,76.364955 92.472602,82.288095 89.25,88.21875 C 90.264536,82.314514 90.883455,76.353076 91.8125,70.4375 C 87.385417,70.4375 82.958333,70.4375 78.53125,70.4375 C 77.479167,78.6875 76.427083,86.9375 75.375,95.1875 z M 127.40625,82.78125 C 125.28635,90.822373 123.34623,98.891577 121.46875,107.03125 C 119.44352,106.50108 113.54551,108.55502 116.10666,104.9585 C 119.98705,95.881108 124.24059,87.17243 128.53125,78.25 C 128.15625,79.760417 127.78125,81.270833 127.40625,82.78125 z"
     transform="matrix(1.6918527,0,0,2.9018086,-53.87131,-139.31881)"
     id="path7392"
     style="font-size:72px;font-style:italic;font-variant:normal;font-weight:normal;font-stretch:normal;text-align:start;line-height:125%;writing-mode:lr-tb;text-anchor:start;opacity:0.09090899;fill:#ffffff;fill-opacity:1;stroke:none;filter:url(#filter6525);font-family:Impact;-inkscape-font-specification:Impact Italic" /><path
     d="M 168.4375,69.1875 C 159.24463,69.316178 150.24939,75.451543 147.53915,84.427242 C 144.09266,94.231482 140.43602,104.02769 137.6875,114.0625 C 136.69416,117.84175 136.17213,123.00436 140.15625,125.34375 C 145.49799,128.57877 152.56961,128.05958 158.21755,126.2326 C 164.16466,124.11813 169.20698,119.61107 171.3125,113.6875 C 172.6062,110.67088 173.72333,107.58673 174.75,104.46875 C 170.09375,104.46875 165.4375,104.46875 160.78125,104.46875 C 158.91227,108.92131 158.27326,114.14598 155.3125,118 C 153.83746,119.55465 149.9106,118.94576 150.84375,116.25 C 153.30273,107.21573 156.86131,98.272929 159.738,89.276015 C 161.28533,85.742281 161.65124,81.253888 164.53125,78.53125 C 165.99509,77.46658 169.41782,77.794543 168.75,80.25 C 167.65818,85.015124 165.69563,89.644503 164.21875,94.34375 C 168.875,94.34375 173.53125,94.34375 178.1875,94.34375 C 179.96632,88.437979 182.92118,82.548058 182.4375,76.28125 C 181.03694,70.13612 173.78462,68.873447 168.4375,69.1875 z M 75.28125,95.1875 C 69.991183,105.60497 64.697649,116.0207 59.40625,126.4375 C 63.90625,126.4375 68.40625,126.4375 72.90625,126.4375 C 76.706091,118.75943 80.540589,111.10656 84.03125,103.28125 C 82.783075,110.96218 81.466787,118.65511 81.0625,126.4375 C 90.072917,126.4375 99.083333,126.4375 108.09375,126.4375 C 109.56799,123.0338 111.00105,119.61098 112.5,116.21875 C 114.21226,116.58164 117.88037,115.50661 118.4375,116.71875 C 117.5625,119.95833 116.6875,123.19792 115.8125,126.4375 C 120.58333,126.4375 125.35417,126.4375 130.125,126.4375 C 133.69792,107.73958 137.27083,89.041667 140.84375,70.34375 C 133.95833,70.34375 127.07292,70.34375 120.1875,70.34375 C 111.45531,88.82148 102.74767,107.31087 94,125.78125 C 95.010903,115.50448 95.884847,105.19521 96.96875,94.9375 C 101.4375,86.739583 105.90625,78.541667 110.375,70.34375 C 106.53125,70.34375 102.6875,70.34375 98.84375,70.34375 C 95.710408,76.115706 92.556739,81.876661 89.4375,87.65625 C 90.418352,81.906408 90.993153,76.097871 91.9375,70.34375 C 87.447917,70.34375 82.958333,70.34375 78.46875,70.34375 C 77.40625,78.625 76.34375,86.90625 75.28125,95.1875 z M 127.3125,82.75 C 125.19323,90.777227 123.1886,98.835613 121.375,106.9375 C 119.81975,106.41819 115.0919,108.04291 115.77844,106.0056 C 119.626,96.890183 123.95362,87.987438 128.21875,79.0625 C 127.91667,80.291667 127.61458,81.520833 127.3125,82.75 z"
     transform="matrix(1.6918527,0,0,2.9018086,-53.87131,-139.31881)"
     id="path7394"
     style="font-size:72px;font-style:italic;font-variant:normal;font-weight:normal;font-stretch:normal;text-align:start;line-height:125%;writing-mode:lr-tb;text-anchor:start;opacity:0.09090899;fill:#ffffff;fill-opacity:1;stroke:none;filter:url(#filter6525);font-family:Impact;-inkscape-font-specification:Impact Italic" /><path
     d="M 168.4375,69.09375 C 159.483,69.255594 150.57289,74.988387 147.75,83.65625 C 144.33738,92.746085 141.28574,101.99238 138.31088,111.23511 C 137.3755,115.31882 135.54072,120.18429 138.37498,123.875 C 141.4828,127.48763 146.86287,127.89658 151.40623,127.6875 C 158.67652,127.32688 166.14676,123.4352 169.74998,117.09375 C 171.93345,113.06219 173.40789,108.69738 174.90623,104.375 C 170.17706,104.375 165.4479,104.375 160.71873,104.375 C 158.97504,108.77305 158.09624,113.68769 155.53123,117.65625 C 154.43158,119.02479 151.07421,119.36944 150.84373,117.125 C 151.7068,111.82599 154.09651,106.86111 155.62322,101.71285 C 158.17836,94.632651 160.17855,87.330515 163.12498,80.40625 C 163.85328,78.358909 166.88679,77.167326 168.53123,78.84375 C 169.05874,81.140568 167.56454,83.530814 167.02116,85.789048 C 166.03493,88.671865 165.04871,91.554683 164.06248,94.4375 C 168.79165,94.4375 173.52081,94.4375 178.24998,94.4375 C 180.07169,88.611281 182.82748,82.785692 182.59373,76.6875 C 181.79827,71.253351 175.77435,69.077797 170.85649,69.081261 C 170.05064,69.037491 169.24348,69.073361 168.43748,69.093751 L 168.4375,69.09375 z M 75.1875,95.15625 C 69.904176,105.6218 64.557636,116.07171 59.25,126.53125 C 63.822917,126.53125 68.395833,126.53125 72.96875,126.53125 C 76.636933,119.04608 80.413691,111.6138 83.8125,104 C 82.512472,111.49291 81.386036,118.92875 80.96875,126.53125 C 90.041667,126.53125 99.114583,126.53125 108.1875,126.53125 C 109.64989,123.12688 111.08093,119.70799 112.5625,116.3125 C 114.53125,116.3125 116.5,116.3125 118.46875,116.3125 C 117.49725,119.70537 116.6222,123.12729 115.6875,126.53125 C 120.54167,126.53125 125.39583,126.53125 130.25,126.53125 C 133.83333,107.77083 137.41667,89.010417 141,70.25 C 134.04167,70.25 127.08333,70.25 120.125,70.25 C 111.4655,88.571371 102.8323,106.90526 94.15625,125.21875 C 95.129183,115.13902 95.996819,105.02394 97.0625,94.96875 C 101.55208,86.729167 106.04167,78.489583 110.53125,70.25 C 106.61458,70.25 102.69792,70.25 98.78125,70.25 C 95.729877,75.864969 92.672315,81.476579 89.625,87.09375 C 90.631839,81.502675 91.081891,75.86221 92.0625,70.25 C 87.5,70.25 82.9375,70.25 78.375,70.25 C 77.3125,78.552083 76.25,86.854167 75.1875,95.15625 z M 127.21875,82.71875 C 125.11674,90.726307 123.08306,98.757632 121.3125,106.84375 C 119.39583,106.84375 117.47917,106.84375 115.5625,106.84375 C 119.31123,97.724818 123.65147,88.859864 127.90625,79.96875 C 127.67708,80.885417 127.44792,81.802083 127.21875,82.71875 z"
     transform="matrix(1.6918527,0,0,2.9018086,-53.87131,-139.31881)"
     id="path7396"
     style="font-size:72px;font-style:italic;font-variant:normal;font-weight:normal;font-stretch:normal;text-align:start;line-height:125%;writing-mode:lr-tb;text-anchor:start;opacity:0.09090899;fill:#ffffff;fill-opacity:1;stroke:none;filter:url(#filter6525);font-family:Impact;-inkscape-font-specification:Impact Italic" /><path
     d="M 168.40625,68.96875 C 160.98204,69.202048 153.63821,73.035533 149.65625,79.34375 C 146.71999,84.858941 145.01851,91.133057 142.90176,97.069499 C 140.66126,104.19784 137.52029,111.15925 136.75,118.65625 C 136.46772,121.78855 138.18266,124.69454 140.9375,126.09375 C 145.21437,128.17792 150.42035,128.19935 155.09375,127.34375 C 160.22931,126.17177 165.01415,123.50712 168.33702,119.43247 C 171.54185,114.96543 173.2108,109.46462 175.03125,104.25 C 170.23958,104.25 165.44792,104.25 160.65625,104.25 C 159.13055,108.3439 158.06209,112.69169 156.11585,116.57775 C 155.4692,118.4661 152.70349,119.24567 151.28125,118.0625 C 150.51055,116.60821 151.45821,114.85901 151.77803,113.37149 C 155.30894,103.06459 158.69086,92.700303 162.34375,82.4375 C 163.0331,80.567538 164.03626,78.138226 166.41824,78.204501 C 167.51716,77.982403 168.96019,78.712725 168.56334,80.010174 C 167.64147,84.544167 165.75774,88.825994 164.38746,93.238343 C 163.21968,94.981909 165.10029,94.541749 166.3375,94.5625 C 170.32917,94.5625 174.32083,94.5625 178.3125,94.5625 C 180.11354,89.011758 182.50133,83.490247 182.78125,77.59375 C 182.76075,73.424677 179.09703,70.415336 175.28125,69.5625 C 173.04653,68.997145 170.70406,68.874906 168.40625,68.96875 L 168.40625,68.96875 z M 75.0625,95.15625 C 69.7962,105.66981 64.407226,116.15399 59.09375,126.65625 C 63.729167,126.65625 68.364583,126.65625 73,126.65625 C 76.581426,119.36745 80.273938,112.13277 83.59375,104.71875 C 82.344511,111.98435 81.240143,119.2903 80.8125,126.65625 C 89.947917,126.65625 99.083333,126.65625 108.21875,126.65625 C 109.69371,123.25337 111.11984,119.82402 112.625,116.4375 C 114.52083,116.4375 116.41667,116.4375 118.3125,116.4375 C 117.40504,119.84614 116.47761,123.24959 115.5625,126.65625 C 120.47917,126.65625 125.39583,126.65625 130.3125,126.65625 C 133.91667,107.8125 137.52083,88.96875 141.125,70.125 C 134.11458,70.125 127.10417,70.125 120.09375,70.125 C 111.49658,88.300447 102.9269,106.48905 94.3125,124.65625 C 95.278694,114.78426 96.194319,104.9063 97.125,95.03125 C 101.64583,86.729167 106.16667,78.427083 110.6875,70.125 C 106.70833,70.125 102.72917,70.125 98.75,70.125 C 95.770386,75.603923 92.794545,81.084901 89.8125,86.5625 C 90.774155,81.107856 91.272226,75.586022 92.1875,70.125 C 87.541667,70.125 82.895833,70.125 78.25,70.125 C 77.1875,78.46875 76.125,86.8125 75.0625,95.15625 z M 127.125,82.71875 C 125.01975,90.685405 123.02953,98.68011 121.21875,106.71875 C 119.375,106.71875 117.53125,106.71875 115.6875,106.71875 C 119.37734,97.949431 123.49764,89.356357 127.625,80.78125 C 127.45833,81.427083 127.29167,82.072917 127.125,82.71875 z"
     transform="matrix(1.6918527,0,0,2.9018086,-53.87131,-139.31881)"
     id="path7398"
     style="font-size:72px;font-style:italic;font-variant:normal;font-weight:normal;font-stretch:normal;text-align:start;line-height:125%;writing-mode:lr-tb;text-anchor:start;opacity:0.09090899;fill:#ffffff;fill-opacity:1;stroke:none;filter:url(#filter6525);font-family:Impact;-inkscape-font-specification:Impact Italic" /><path
     d="M 168.40625,68.875 C 163.54564,69.036918 158.75117,70.705509 154.84375,73.59375 C 153.97146,74.210763 153.04033,75.106033 152.22971,75.919862 C 151.32543,76.902553 150.55774,77.861199 149.7975,78.986499 C 147.96961,81.922195 146.92915,85.254465 145.72757,88.478546 C 143.37013,95.400959 140.97785,102.31253 138.69657,109.26035 C 137.74795,112.4114 136.8523,115.62765 136.65625,118.925 C 136.52839,121.15713 137.40472,123.47087 139.06573,124.8893 C 141.75592,127.21076 145.43203,127.8487 148.88125,127.9375 C 153.9048,128.14521 159.02578,126.86009 163.21154,124.04365 C 164.29599,123.37862 165.34007,122.55584 166.28125,121.8125 C 167.35785,120.81681 168.27879,119.78109 169.05081,118.58519 C 171.51024,114.80401 172.95488,110.47509 174.46875,106.25 C 174.70833,105.55208 174.94792,104.85417 175.1875,104.15625 C 170.3125,104.15625 165.4375,104.15625 160.5625,104.15625 C 159.21714,107.94085 158.11387,111.81758 156.5431,115.51768 C 155.99874,116.85994 155.13349,118.31201 153.55233,118.46791 C 152.57867,118.62333 151.1542,118.45891 151.08161,117.27351 C 151.14851,114.9196 152.14807,112.70803 152.85514,110.48766 C 155.96748,101.37033 159.00973,92.227521 162.16921,83.127282 C 162.90084,81.503517 163.36598,79.516179 165,78.59375 C 165.99135,78.267687 167.29044,78.04593 168.15625,78.71875 C 168.85172,79.448592 168.30536,80.590695 168.18965,81.470667 C 166.86134,85.91151 165.24694,90.259872 163.78127,94.65625 C 168.65627,94.65625 173.53127,94.65625 178.40627,94.65625 C 180.0366,89.716153 181.96163,84.820078 182.72924,79.650549 C 183.09268,77.479918 182.83376,75.097247 181.44002,73.32625 C 180.92948,72.571612 180.14524,71.834667 179.3874,71.316876 C 176.25798,69.048366 172.14611,68.761006 168.40627,68.875 L 168.40625,68.875 z M 74.96875,95.125 C 69.642909,105.67345 64.255696,116.2072 58.90625,126.75 C 63.635417,126.75 68.364583,126.75 73.09375,126.75 C 75.338657,122.13421 77.649512,117.55038 79.894803,112.93542 C 81.074643,110.44535 82.232771,107.94503 83.375,105.4375 C 82.171971,112.49554 81.111751,119.5942 80.71875,126.75 C 89.916667,126.75 99.114583,126.75 108.3125,126.75 C 109.7721,123.34434 111.22161,119.934 112.6875,116.53125 C 114.52083,116.53125 116.35417,116.53125 118.1875,116.53125 C 117.27536,119.93868 116.35341,123.34355 115.4375,126.75 C 120.41667,126.75 125.39583,126.75 130.375,126.75 C 133.98958,107.84375 137.60417,88.9375 141.21875,70.03125 C 134.14583,70.03125 127.07292,70.03125 120,70.03125 C 111.48983,88.052198 102.9777,106.07223 94.46875,124.09375 C 95.401805,114.41846 96.31082,104.73983 97.21875,95.0625 C 101.76042,86.71875 106.30208,78.375 110.84375,70.03125 C 106.79167,70.03125 102.73958,70.03125 98.6875,70.03125 C 95.78924,75.352825 92.910472,80.685178 90,86 C 90.918247,80.699671 91.418496,75.339119 92.28125,70.03125 C 87.583333,70.03125 82.885417,70.03125 78.1875,70.03125 C 77.114583,78.395833 76.041667,86.760417 74.96875,95.125 z M 127.03125,82.6875 C 124.93819,90.632184 122.94048,98.60748 121.15625,106.625 C 119.38542,106.625 117.61458,106.625 115.84375,106.625 C 119.38477,98.2019 123.35488,89.967262 127.28125,81.71875 C 127.19795,82.041667 127.11458,82.364583 127.03125,82.6875 z"
     transform="matrix(1.6918527,0,0,2.9018086,-53.87131,-139.31881)"
     id="path7400"
     style="font-size:72px;font-style:italic;font-variant:normal;font-weight:normal;font-stretch:normal;text-align:start;line-height:125%;writing-mode:lr-tb;text-anchor:start;opacity:0.09090899;fill:#ffffff;fill-opacity:1;stroke:none;filter:url(#filter6525);font-family:Impact;-inkscape-font-specification:Impact Italic" /><path
     d="M 168.40625,68.6875 C 163.50603,68.839627 158.67457,70.524719 154.71875,73.40625 C 152.80946,74.994119 150.99334,76.778149 149.61,78.861499 C 147.81789,81.799413 146.77248,85.112292 145.57292,88.321596 C 143.2033,95.275066 140.8014,102.21858 138.50907,109.19785 C 137.5466,112.39997 136.63059,115.67067 136.46875,119.025 C 136.36807,121.26084 137.19967,123.57896 138.93088,125.02463 C 140.90723,126.84469 143.65886,127.61926 146.29192,127.93327 C 151.41829,128.56512 156.79241,127.83947 161.375,125.375 C 164.04926,123.96555 166.53539,122.15398 168.4375,119.78125 C 170.28285,117.51209 171.41041,114.72419 172.54248,112.03283 C 173.60715,109.3823 174.54811,106.68203 175.4375,103.96875 C 170.4375,103.96875 165.4375,103.96875 160.4375,103.96875 C 159.0379,107.81724 157.93155,111.7793 156.31422,115.54622 C 155.76669,116.81536 154.87751,118.22968 153.34375,118.3125 C 152.55249,118.3769 151.39131,118.2626 151.28825,117.30924 C 151.23385,115.90156 151.75925,114.52294 152.1482,113.17872 C 155.5632,103.18727 158.89824,93.16583 162.35671,83.189782 C 162.9363,81.851266 163.41022,80.333656 164.36823,79.304627 C 165.14182,78.514751 166.52765,78.292596 167.625,78.625 C 168.48164,78.885806 168.364,79.89384 168.17628,80.580649 C 167.41338,83.829258 166.15977,86.94168 165.13155,90.113305 C 164.6016,91.691147 164.04401,93.260841 163.53125,94.84375 C 168.53125,94.84375 173.53125,94.84375 178.53125,94.84375 C 180.13572,90.092039 181.95953,85.368584 182.8036,80.40603 C 183.18462,78.301885 183.24573,76.022335 182.1875,74.09375 C 181.43835,72.73672 180.26394,71.635119 178.98475,70.772101 C 175.85175,68.848535 171.99689,68.574792 168.40625,68.6875 L 168.40625,68.6875 z M 78,69.9375 C 76.928406,78.333418 75.846233,86.728661 74.78125,95.125 C 69.385711,105.72932 63.987817,116.33244 58.59375,126.9375 C 63.46875,126.9375 68.34375,126.9375 73.21875,126.9375 C 75.472302,122.3112 77.783639,117.71284 80.039536,113.08831 C 81.018673,111.02337 81.981231,108.95061 82.9375,106.875 C 81.843953,113.521 80.865806,120.20394 80.53125,126.9375 C 89.833333,126.9375 99.135417,126.9375 108.4375,126.9375 C 109.90338,123.53475 111.35291,120.12442 112.8125,116.71875 C 114.52083,116.71875 116.22917,116.71875 117.9375,116.71875 C 117.02159,120.1252 116.09964,123.53007 115.1875,126.9375 C 120.3125,126.9375 125.4375,126.9375 130.5625,126.9375 C 134.17681,107.90455 137.82311,88.872256 141.46875,69.84375 C 134.27083,69.84375 127.07292,69.84375 119.875,69.84375 C 111.50757,87.561119 103.14631,105.28148 94.78125,123 C 95.65625,113.72917 96.53125,104.45833 97.40625,95.1875 C 101.994,86.736762 106.62974,78.308593 111.1875,69.84375 C 106.97917,69.84375 102.77083,69.84375 98.5625,69.84375 C 95.813055,74.839015 93.107547,79.867109 90.375,84.875 C 91.206938,79.880596 91.64717,74.828568 92.53125,69.84375 C 87.6875,69.84375 82.84375,69.84375 78,69.84375 L 78,69.9375 z M 125.0625,89.46875 C 123.62484,95.107194 122.29007,100.77086 120.96875,106.4375 C 119.36458,106.4375 117.76042,106.4375 116.15625,106.4375 C 119.04949,99.451675 122.32193,92.63074 125.55756,85.798977 C 125.90295,85.074318 126.24835,84.349659 126.59375,83.625 C 126.08333,85.572917 125.57292,87.520833 125.0625,89.46875 L 125.0625,89.46875 z"
     transform="matrix(1.6918527,0,0,2.9018086,-53.87131,-139.31881)"
     id="path7402"
     style="font-size:72px;font-style:italic;font-variant:normal;font-weight:normal;font-stretch:normal;text-align:start;line-height:125%;writing-mode:lr-tb;text-anchor:start;opacity:0.09090899;fill:#ffffff;fill-opacity:1;stroke:none;filter:url(#filter6525);font-family:Impact;-inkscape-font-specification:Impact Italic" /><path
     d="M 168.40625,68.6875 C 163.50603,68.839627 158.67457,70.524719 154.71875,73.40625 C 152.80946,74.994119 150.99334,76.778149 149.61,78.861499 C 147.81789,81.799413 146.77248,85.112292 145.57292,88.321596 C 143.2033,95.275067 140.8014,102.21858 138.50907,109.19785 C 137.5466,112.39997 136.63059,115.67067 136.46875,119.025 C 136.36807,121.26084 137.19967,123.57896 138.93088,125.02463 C 140.90723,126.84469 143.65886,127.61926 146.29192,127.93327 C 151.41829,128.56512 156.79241,127.83947 161.375,125.375 C 164.04926,123.96555 166.53539,122.15398 168.4375,119.78125 C 170.28285,117.51209 171.41041,114.72419 172.54248,112.03283 C 173.60715,109.3823 174.54811,106.68203 175.4375,103.96875 C 170.4375,103.96875 165.4375,103.96875 160.4375,103.96875 C 159.0379,107.81724 157.93155,111.7793 156.31422,115.54622 C 155.76669,116.81536 154.87751,118.22968 153.34375,118.3125 C 152.55249,118.3769 151.39131,118.2626 151.28825,117.30924 C 151.23385,115.90156 151.75925,114.52294 152.1482,113.17872 C 155.5632,103.18727 158.89824,93.16583 162.35671,83.189782 C 162.9363,81.851266 163.41022,80.333656 164.36823,79.304627 C 165.14182,78.514751 166.52765,78.292596 167.625,78.625 C 168.48164,78.885806 168.364,79.89384 168.17628,80.580649 C 167.41338,83.829258 166.15977,86.94168 165.13155,90.113306 C 164.6016,91.691147 164.04401,93.260841 163.53125,94.84375 C 168.53125,94.84375 173.53125,94.84375 178.53125,94.84375 C 180.13572,90.092039 181.95953,85.368584 182.8036,80.40603 C 183.18462,78.301885 183.24573,76.022335 182.1875,74.09375 C 181.43835,72.73672 180.26394,71.635119 178.98475,70.772101 C 175.85175,68.848535 171.99689,68.574792 168.40625,68.6875 L 168.40625,68.6875 z M 78,69.9375 C 76.928406,78.333418 75.846233,86.728661 74.78125,95.125 C 69.385711,105.72932 63.987817,116.33244 58.59375,126.9375 C 63.46875,126.9375 68.34375,126.9375 73.21875,126.9375 C 75.472302,122.3112 77.783639,117.71284 80.039536,113.08831 C 81.018673,111.02337 81.981231,108.95061 82.9375,106.875 C 81.843953,113.521 80.865806,120.20394 80.53125,126.9375 C 89.833333,126.9375 99.135417,126.9375 108.4375,126.9375 C 109.90338,123.53475 111.35291,120.12442 112.8125,116.71875 C 114.52083,116.71875 116.22917,116.71875 117.9375,116.71875 C 117.02159,120.1252 116.09964,123.53007 115.1875,126.9375 C 120.3125,126.9375 125.4375,126.9375 130.5625,126.9375 C 134.17681,107.90455 137.82311,88.872256 141.46875,69.84375 C 134.27083,69.84375 127.07292,69.84375 119.875,69.84375 C 111.50757,87.561119 103.14631,105.28148 94.78125,123 C 95.65625,113.72917 96.53125,104.45833 97.40625,95.1875 C 101.994,86.736762 106.62974,78.308593 111.1875,69.84375 C 106.97917,69.84375 102.77083,69.84375 98.5625,69.84375 C 95.813055,74.839015 93.107547,79.867109 90.375,84.875 C 91.206938,79.880596 91.64717,74.828568 92.53125,69.84375 C 87.6875,69.84375 82.84375,69.84375 78,69.84375 L 78,69.9375 z M 125.0625,89.46875 C 123.62484,95.107194 122.29007,100.77086 120.96875,106.4375 C 119.36458,106.4375 117.76042,106.4375 116.15625,106.4375 C 119.04949,99.451675 122.32193,92.63074 125.55756,85.798977 C 125.90295,85.074318 126.24835,84.349659 126.59375,83.625 C 126.08333,85.572917 125.57292,87.520833 125.0625,89.46875 L 125.0625,89.46875 z"
     transform="matrix(1.6918527,0,0,2.9018086,-53.87131,-139.31881)"
     id="path7404"
     style="font-size:72px;font-style:italic;font-variant:normal;font-weight:normal;font-stretch:normal;text-align:start;line-height:125%;writing-mode:lr-tb;text-anchor:start;opacity:0.09090899;fill:#ffffff;fill-opacity:1;stroke:none;filter:url(#filter6525);font-family:Impact;-inkscape-font-specification:Impact Italic" /><path
     d="M 168.40625,68.59375 C 159.68592,68.803941 151.03966,74.025212 147.77566,82.234045 C 144.39731,90.79104 141.69324,99.607425 138.68881,108.30403 C 137.50815,112.32223 136.08893,116.47718 136.46875,120.71875 C 137.01285,124.77383 140.96784,127.15985 144.71875,127.78125 C 151.03083,128.94445 157.92887,127.97306 163.28125,124.34375 C 166.75987,122.37492 169.55644,119.12701 171.1875,115.40625 C 172.94832,111.68541 174.25596,107.76569 175.59375,103.875 C 170.51042,103.875 165.42708,103.875 160.34375,103.875 C 158.80056,108.13335 157.63915,112.71372 155.625,116.6875 C 154.93286,118.06789 152.66835,118.85834 151.53125,117.6875 C 151.02248,116.19426 151.94925,114.58434 152.27159,113.11446 C 155.78324,102.9415 159.10186,92.696813 162.71875,82.5625 C 163.40455,80.797938 164.34195,78.401413 166.64882,78.563071 C 167.69217,78.395866 168.61156,79.315672 168.12149,80.353207 C 166.89339,85.312301 164.94613,90.075876 163.375,94.9375 C 168.45833,94.9375 173.54167,94.9375 178.625,94.9375 C 180.42734,89.255238 182.89972,83.623795 183.15625,77.59375 C 183.19465,73.115473 179.12001,69.886235 175.01819,69.090486 C 172.85249,68.633252 170.61673,68.491121 168.40625,68.59375 z M 77.90625,69.90625 C 76.781301,78.333955 75.830542,86.815328 74.596865,95.209534 C 69.215232,105.81907 63.795006,116.41023 58.4375,127.03125 C 63.385417,127.03125 68.333333,127.03125 73.28125,127.03125 C 76.445237,120.56275 79.761059,114.16267 82.71875,107.59375 C 81.65848,114.03347 80.778043,120.51353 80.40625,127.03125 C 89.770833,127.03125 99.135417,127.03125 108.5,127.03125 C 110.00492,123.6446 111.43146,120.21548 112.90625,116.8125 C 114.54167,116.8125 116.17708,116.8125 117.8125,116.8125 C 116.89738,120.21915 115.96998,123.62261 115.0625,127.03125 C 120.25,127.03125 125.4375,127.03125 130.625,127.03125 C 134.29053,107.93959 137.89746,88.834242 141.59375,69.75 C 134.33333,69.75 127.07292,69.75 119.8125,69.75 C 111.48171,87.285847 103.21312,104.85687 94.90625,122.40625 C 95.770833,113.34375 96.635417,104.28125 97.5,95.21875 C 102.12579,86.729601 106.74528,78.236987 111.375,69.75 C 107.08333,69.75 102.79167,69.75 98.5,69.75 C 95.836891,74.593735 93.211215,79.460073 90.5625,84.3125 C 91.339082,79.470735 91.801531,74.584568 92.625,69.75 C 87.71875,69.75 82.8125,69.75 77.90625,69.75 L 77.90625,69.90625 z M 124.96875,89.4375 C 123.53974,95.055063 122.20911,100.69521 120.90625,106.34375 C 119.36458,106.34375 117.82292,106.34375 116.28125,106.34375 C 119.3907,99.038777 122.78955,91.851158 126.21875,84.6875 C 125.80208,86.270833 125.38542,87.854167 124.96875,89.4375 z"
     transform="matrix(1.6918527,0,0,2.9018086,-53.87131,-139.31881)"
     id="path7406"
     style="font-size:72px;font-style:italic;font-variant:normal;font-weight:normal;font-stretch:normal;text-align:start;line-height:125%;writing-mode:lr-tb;text-anchor:start;opacity:0.09090899;fill:#ffffff;fill-opacity:1;stroke:none;filter:url(#filter6525);font-family:Impact;-inkscape-font-specification:Impact Italic" /><path
     d="M 168.40625,68.46875 C 159.0863,68.707241 149.99056,74.668827 147.07608,83.684793 C 143.74397,92.835333 140.57146,102.07122 137.67339,111.36935 C 136.6855,115.5063 134.94258,120.54848 137.90625,124.25 C 141.54619,128.39694 147.77505,128.64097 152.9375,128.1875 C 160.93226,127.22973 168.71023,122.31146 171.6628,114.62238 C 173.26139,111.09556 174.49691,107.42154 175.71875,103.75 C 170.57292,103.75 165.42708,103.75 160.28125,103.75 C 158.55357,108.22207 157.63471,113.13556 155.09375,117.21875 C 154.10023,118.54435 150.82402,118.61405 151.5,116.375 C 153.42714,109.16389 156.23003,102.19768 158.49881,95.082011 C 160.40141,90.015443 161.60855,84.628906 164.15625,79.84375 C 164.93352,78.654593 167.1748,78.127962 168.0625,79.3125 C 167.85655,82.896979 165.98626,86.368506 165.00855,89.861491 C 164.42603,91.596348 163.81251,93.321159 163.25,95.0625 C 168.39583,95.0625 173.54167,95.0625 178.6875,95.0625 C 180.52971,89.071071 183.33583,83.075819 183.23004,76.794414 C 182.60344,71.426786 176.88402,68.713114 171.96875,68.53125 C 170.78513,68.406078 169.59386,68.428938 168.40625,68.46875 L 168.40625,68.46875 z M 77.78125,69.90625 C 76.630619,78.380906 75.734123,86.936492 74.426437,95.36112 C 69.035333,105.96002 63.63594,116.55474 58.25,127.15625 C 63.28125,127.15625 68.3125,127.15625 73.34375,127.15625 C 76.382984,120.86834 79.619293,114.67609 82.5,108.3125 C 81.522529,114.56647 80.557058,120.80272 80.3125,127.15625 C 89.729167,127.15625 99.145833,127.15625 108.5625,127.15625 C 110.04377,123.76062 111.47534,120.34198 112.9375,116.9375 C 114.26264,117.36504 117.94059,115.99049 117.45303,117.80642 C 116.597,120.92089 115.79889,124.05281 114.90625,127.15625 C 120.17708,127.15625 125.44792,127.15625 130.71875,127.15625 C 134.36043,107.97566 138.015,88.793578 141.71875,69.625 C 134.39583,69.625 127.07292,69.625 119.75,69.625 C 111.52291,87.00636 103.31389,104.39651 95.09375,121.78125 C 95.9375,112.90625 96.78125,104.03125 97.625,95.15625 C 102.259,86.645068 106.90424,78.139948 111.53125,69.625 C 107.16667,69.625 102.80208,69.625 98.4375,69.625 C 95.900541,74.381491 93.285662,79.101343 90.71875,83.84375 C 91.547188,79.141066 91.935988,74.326507 92.75,69.625 C 87.78125,69.625 82.8125,69.625 77.84375,69.625 L 77.78125,69.90625 z M 124.875,89.4375 C 123.46314,95.014596 122.11177,100.60716 120.84375,106.21875 C 119.60503,105.8038 115.60837,107.23582 116.92565,105.10914 C 119.74074,98.538854 122.79953,92.076496 125.875,85.625 C 125.54167,86.895833 125.20833,88.166667 124.875,89.4375 z"
     transform="matrix(1.6918527,0,0,2.9018086,-53.87131,-139.31881)"
     id="path7408"
     style="font-size:72px;font-style:italic;font-variant:normal;font-weight:normal;font-stretch:normal;text-align:start;line-height:125%;writing-mode:lr-tb;text-anchor:start;opacity:0.09090899;fill:#ffffff;fill-opacity:1;stroke:none;filter:url(#filter6525);font-family:Impact;-inkscape-font-specification:Impact Italic" /><path
     d="M 168.40625,68.375 C 158.69087,68.552691 149.40209,75.073799 146.65625,84.5 C 143.24014,94.352614 139.50764,104.21993 136.82467,114.26659 C 135.65655,118.32829 135.65333,123.58526 139.71875,126.03125 C 145.52857,129.47771 153.11176,128.96263 159.18272,126.72355 C 165.13915,124.41939 170.08486,119.72012 172.21585,113.63056 C 173.60918,110.37196 174.72329,107.00691 175.875,103.65625 C 170.65625,103.65625 165.4375,103.65625 160.21875,103.65625 C 158.36039,108.20953 157.62042,113.38753 154.75,117.4375 C 153.47993,118.60846 150.47768,118.09361 151.75,115.875 C 154.64155,105.92898 158.42159,96.040955 161.64454,86.116848 C 162.80349,83.695626 163.04167,79.820649 165.875,78.875 C 167.10602,78.406169 168.70746,79.144371 167.84375,80.65625 C 166.59418,85.504467 164.65768,90.332398 163.09375,95.15625 C 168.3125,95.15625 173.53125,95.15625 178.75,95.15625 C 180.60505,88.951118 183.73723,82.738024 183.25,76.125 C 181.77374,69.640016 174.14472,67.979565 168.40625,68.375 z M 77.6875,69.875 C 76.509792,78.376026 75.683098,86.985144 74.28747,95.419064 C 68.886742,106.02792 63.508516,116.64841 58.09375,127.25 C 63.197917,127.25 68.302083,127.25 73.40625,127.25 C 76.299002,121.16885 79.456323,115.21999 82.25,109.09375 C 81.295796,115.11122 80.499453,121.1617 80.1875,127.25 C 89.666667,127.25 99.145833,127.25 108.625,127.25 C 110.12318,123.85741 111.55758,120.43522 113.03125,117.03125 C 115.49963,117.01235 118.93083,116.25626 116.83239,119.73439 C 116.14118,122.23741 115.50563,124.75664 114.78125,127.25 C 120.125,127.25 125.46875,127.25 130.8125,127.25 C 134.46424,108.00785 138.1994,88.779541 141.8125,69.53125 C 134.4375,69.53125 127.0625,69.53125 119.6875,69.53125 C 111.53043,86.765372 103.39771,104.01133 95.25,121.25 C 96.188897,112.45151 96.723933,103.52531 97.910322,94.805109 C 102.5183,86.383392 107.08546,77.938734 111.71875,69.53125 C 107.27083,69.53125 102.82292,69.53125 98.375,69.53125 C 95.93623,74.113365 93.409912,78.65297 90.9375,83.21875 C 91.660155,78.667246 92.104029,74.075694 92.875,69.53125 C 87.833333,69.53125 82.791667,69.53125 77.75,69.53125 L 77.6875,69.875 z M 124.78125,89.40625 C 123.36615,94.96177 122.04377,100.54013 120.75,106.125 C 117.8324,106.43985 115.4498,106.37336 117.86111,103.19086 C 120.29872,97.609023 122.91256,92.10705 125.5,86.59375 C 125.26042,87.53125 125.02083,88.46875 124.78125,89.40625 z"
     transform="matrix(1.6918527,0,0,2.9018086,-53.87131,-139.31881)"
     id="path7410"
     style="font-size:72px;font-style:italic;font-variant:normal;font-weight:normal;font-stretch:normal;text-align:start;line-height:125%;writing-mode:lr-tb;text-anchor:start;opacity:0.09090899;fill:#ffffff;fill-opacity:1;stroke:none;filter:url(#filter6525);font-family:Impact;-inkscape-font-specification:Impact Italic" /><path
     d="M 168.40625,68.28125 C 158.44537,68.447701 149.04851,75.238405 146.38965,84.937922 C 142.94349,95.258269 138.73031,105.45346 136.375,116.0625 C 135.09626,120.55883 137.0735,125.65711 141.65625,127.1875 C 153.3307,131.4687 168.25722,125.71736 172.34794,113.56945 C 173.73593,110.29901 174.86724,106.92953 176,103.5625 C 170.71875,103.5625 165.4375,103.5625 160.15625,103.5625 C 158.14327,108.13665 157.62849,113.6949 154.4375,117.53125 C 153.29829,118.4009 150.65819,117.93389 151.84375,115.90625 C 155.18014,104.81619 159.20297,93.704295 163,82.6875 C 163.46081,80.568995 165.44454,77.884852 167.8125,79.1875 C 167.41923,84.330464 164.6802,89.161756 163.33758,94.153224 C 162.85302,96.620011 168.62518,94.591163 170.65625,95.25 C 173.2772,94.705745 177.44732,96.343967 179.09889,94.433014 C 180.84032,88.32542 184.19622,82.135411 183.1875,75.65625 C 181.52149,69.405692 174.05119,67.929828 168.40625,68.28125 z M 77.59375,69.875 C 76.388493,78.401554 75.620349,87.065438 74.148222,95.508114 C 68.74222,106.11874 63.355674,116.73939 57.9375,127.34375 C 63.114583,127.34375 68.291667,127.34375 73.46875,127.34375 C 76.285666,121.43516 79.341277,115.64186 82.0625,109.6875 C 81.146301,115.53949 80.37843,121.42365 80.09375,127.34375 C 89.635417,127.34375 99.177083,127.34375 108.71875,127.34375 C 110.16166,123.93111 111.638,120.53232 113.09375,117.125 C 117.62344,116.04167 117.75827,118.32281 116.13256,121.95171 C 115.54221,124.65039 113.09932,128.71313 117.8125,127.34375 C 122.16667,127.34375 126.52083,127.34375 130.875,127.34375 C 134.58712,108.04709 138.283,88.745153 141.9375,69.4375 C 134.5,69.4375 127.0625,69.4375 119.625,69.4375 C 111.56489,86.547535 103.47703,103.64485 95.40625,120.75 C 96.35472,112.13439 96.782117,103.35971 98.051504,94.842073 C 102.65883,86.373605 107.27014,77.907303 111.875,69.4375 C 107.36876,69.611858 102.43419,69.093168 98.1875,69.6875 C 95.833333,74.010417 93.479167,78.333333 91.125,82.65625 C 91.791389,78.255567 92.228358,73.82237 93,69.4375 C 87.885417,69.4375 82.770833,69.4375 77.65625,69.4375 L 77.59375,69.875 z M 124.6875,89.375 C 123.23063,94.850842 121.9273,100.46972 120.65625,106.03125 C 116.03744,107.13611 116.95562,104.55226 118.72379,101.49474 C 120.8166,96.754127 122.99197,92.165916 125.1875,87.5 C 125.02083,88.125 124.85417,88.75 124.6875,89.375 z"
     transform="matrix(1.6918527,0,0,2.9018086,-53.87131,-139.31881)"
     id="path7412"
     style="font-size:72px;font-style:italic;font-variant:normal;font-weight:normal;font-stretch:normal;text-align:start;line-height:125%;writing-mode:lr-tb;text-anchor:start;opacity:0.09090899;fill:#ffffff;fill-opacity:1;stroke:none;filter:url(#filter6525);font-family:Impact;-inkscape-font-specification:Impact Italic" /></g></svg>